<svg xmlns="http://www.w3.org/2000/svg" width="31" height="31" viewBox="0 0 31 31">
  <g id="Group_2159" data-name="Group 2159" transform="translate(-240 -555)">
    <g id="Group_1416" data-name="Group 1416" transform="translate(240 555.074)">
      <circle id="Ellipse_56" data-name="Ellipse 56" cx="15.5" cy="15.5" r="15.5" transform="translate(0 -0.074)" fill="#71c8ff"/>
    </g>
    <g id="Icon_ionic-md-heart-dislike" data-name="Icon ionic-md-heart-dislike" transform="translate(245.633 561.309)">
      <path id="Path_3268" data-name="Path 3268" d="M3.492,4.436l.773.773a3.572,3.572,0,0,0-.9,2.4c0,2.457,2.185,4.428,5.494,7.469l.936.837.933-.841c.637-.584,1.233-1.131,1.777-1.647l2.849,2.843.742-.742L4.239,3.691Z" transform="translate(0 0)" fill="#fff"/>
      <path id="Path_3269" data-name="Path 3269" d="M19.781,8.057A3.5,3.5,0,0,0,16.246,4.5a3.8,3.8,0,0,0-2.892,1.357A3.8,3.8,0,0,0,10.461,4.5a3.728,3.728,0,0,0-.751.077L17.55,12.4C18.956,10.894,19.781,9.568,19.781,8.057Z" transform="translate(-3.555 -0.453)" fill="#fff"/>
    </g>
  </g>
</svg>
