<svg xmlns="http://www.w3.org/2000/svg" width="31" height="31" viewBox="0 0 31 31">
  <g id="Group_1364" data-name="Group 1364" transform="translate(6 9)">
    <circle id="Ellipse_56" data-name="Ellipse 56" cx="15.5" cy="15.5" r="15.5" transform="translate(-6 -9)" fill="#71c8ff"/>
    <path id="Path_3183" data-name="Path 3183" d="M0,7.222,4.643,0" transform="translate(1.161 4.256)" fill="#fff" stroke="#fff" stroke-width="0.8"/>
    <path id="Path_3181" data-name="Path 3181" d="M0,0,4.385,7.738" transform="translate(6.062 3.74)" fill="#fff" stroke="#fff" stroke-width="0.8"/>
    <path id="Path_3182" data-name="Path 3182" d="M1.789,0A1.789,1.789,0,1,1,0,1.789,1.789,1.789,0,0,1,1.789,0Z" transform="translate(9.286 9.801)" fill="#fff"/>
    <path id="Path_3180" data-name="Path 3180" d="M0,10.833,5.674,0" transform="translate(10.961 1.16)" fill="#fff" stroke="#fff" stroke-width="0.8"/>
    <path id="Path_3186" data-name="Path 3186" d="M1.29,0A1.29,1.29,0,1,1,0,1.29,1.29,1.29,0,0,1,1.29,0Z" transform="translate(0 9.801)" fill="#fff"/>
    <path id="Path_3184" data-name="Path 3184" d="M1.806,0A1.806,1.806,0,1,1,0,1.806,1.806,1.806,0,0,1,1.806,0Z" transform="translate(3.642 1.546)" fill="#fff"/>
    <path id="Path_3185" data-name="Path 3185" d="M1.87,0A1.87,1.87,0,1,1,0,1.87,1.87,1.87,0,0,1,1.87,0Z" transform="translate(14.315)" fill="#fff"/>
  </g>
</svg>
