<svg xmlns="http://www.w3.org/2000/svg" width="31" height="31" viewBox="0 0 31 31">
  <g id="Group_1640" data-name="Group 1640" transform="translate(-60 -674)">
    <circle id="Ellipse_56" data-name="Ellipse 56" cx="15.5" cy="15.5" r="15.5" transform="translate(60 674)" fill="#71c8ff"/>
    <path id="Icon_ionic-ios-analytics" data-name="Icon ionic-ios-analytics" d="M10.893,3.375a7.518,7.518,0,1,0,7.518,7.518A7.516,7.516,0,0,0,10.893,3.375ZM4.387,10.893a6.507,6.507,0,0,1,13.008-.275,2.2,2.2,0,0,0-1.583-.867c-.994,0-1.507.929-1.843,1.543-.051.09-.1.177-.141.253a1.789,1.789,0,0,1-1.536,1.045,1.463,1.463,0,0,1-1.164-1.041A2.819,2.819,0,0,0,9.216,9.772a1.721,1.721,0,0,0-1.616.773c-.116.145-.249.34-.4.564-.376.56-.947,1.4-1.377,1.475a1.652,1.652,0,0,1-1.316-.445A6.482,6.482,0,0,1,4.387,10.893Z" transform="translate(64.625 679.09)" fill="#fff"/>
  </g>
</svg>
