<svg xmlns="http://www.w3.org/2000/svg" width="23.072" height="25.5" viewBox="0 0 23.072 25.5">
  <g id="Group_1264" data-name="Group 1264" transform="translate(-1546.803 -27)">
    <path id="Path_1579" data-name="Path 1579" d="M971.356-1736.572h.567a3.06,3.06,0,0,0,2.691.995,2.132,2.132,0,0,1,.282,0,7.1,7.1,0,0,1,5.809,2.989,27.608,27.608,0,0,1,3.2,5.763,4.966,4.966,0,0,0,3.279,3.165,1.9,1.9,0,0,1,.312.131,2.873,2.873,0,0,1,1.442,3.574,10.224,10.224,0,0,1-1.446,2.334,19.728,19.728,0,0,1-10.488,5.973c-1.109.27-2.254.385-3.384.572h-2.04c-.2-.033-.408-.055-.607-.1a27.961,27.961,0,0,1-2.726-.69,2.632,2.632,0,0,1-1.82-2.369,3.347,3.347,0,0,1,.552-2.2,4.615,4.615,0,0,0,.451-3.744c-.5-2.067-.912-4.16-1.235-6.26a6.686,6.686,0,0,1,.788-4.653,27.425,27.425,0,0,1,2.2-2.63,3.81,3.81,0,0,0,.969-1.4A1.668,1.668,0,0,1,971.356-1736.572Zm12.688,14.54c-1.054.124-1.867.17-2.659.323a25.023,25.023,0,0,0-10.48,4.406,6.905,6.905,0,0,0-2.143,2.374c-.395.788-.282,1.144.565,1.323a16.427,16.427,0,0,0,3.293.446,18.3,18.3,0,0,0,9.8-2.843,13.438,13.438,0,0,0,4.421-4.062c.477-.739.378-1.161-.45-1.44A19.531,19.531,0,0,0,984.044-1722.032Z" transform="translate(580.711 1763.572)" fill="#fe7235"/>
    <path id="Path_1580" data-name="Path 1580" d="M978.076-1724.3a2.664,2.664,0,0,1-.168,2.06,6.389,6.389,0,0,1-7.417,2.835,8.615,8.615,0,0,1-.853-.477C970.756-1721.224,975.52-1723.713,978.076-1724.3Z" transform="translate(582.785 1767.293)" fill="#fe7235"/>
  </g>
</svg>
