<svg xmlns="http://www.w3.org/2000/svg" width="23.625" height="24.939" viewBox="0 0 23.625 24.939">
  <path id="Path_1581" data-name="Path 1581" d="M1020.97-1727.474a11.977,11.977,0,0,0-15.043-8.436c-6.323,1.986-10.039,9.266-7.32,15.321,1.373,3.058,2.063,5.789.694,9.081,2.73-1.017,4.8-2.657,7.965-1.723C1015.437-1710.822,1023.1-1719.478,1020.97-1727.474Zm-17.355,4.428a1.66,1.66,0,0,1-1.661-1.661,1.66,1.66,0,0,1,1.661-1.661,1.66,1.66,0,0,1,1.661,1.661A1.66,1.66,0,0,1,1003.615-1723.047Zm5.8,0a1.66,1.66,0,0,1-1.661-1.661,1.66,1.66,0,0,1,1.661-1.661,1.66,1.66,0,0,1,1.661,1.661A1.66,1.66,0,0,1,1009.414-1723.047Zm5.723,0a1.661,1.661,0,0,1-1.661-1.661,1.661,1.661,0,0,1,1.661-1.661,1.661,1.661,0,0,1,1.662,1.661A1.661,1.661,0,0,1,1015.137-1723.047Z" transform="translate(-997.706 1736.447)" fill="#fe7235"/>
</svg>
