<svg xmlns="http://www.w3.org/2000/svg" width="31" height="31" viewBox="0 0 31 31">
  <g id="Group_1272" data-name="Group 1272" transform="translate(-240 -513)">
    <circle id="Ellipse_56" data-name="Ellipse 56" cx="15.5" cy="15.5" r="15.5" transform="translate(240 513)" fill="#71c8ff"/>
    <g id="notifications_none-24px" transform="translate(245.865 518.462)">
      <path id="Path_1556" data-name="Path 1556" d="M0,0H18.293V18.293H0Z" transform="translate(0)" fill="none"/>
      <path id="Path_1557" data-name="Path 1557" d="M10.1,17.363a1.529,1.529,0,0,0,1.524-1.524H8.573A1.529,1.529,0,0,0,10.1,17.363Zm4.573-4.573V8.979a4.636,4.636,0,0,0-3.43-4.817V3.643a1.143,1.143,0,0,0-2.287,0v.518a4.638,4.638,0,0,0-3.43,4.817V12.79L4,14.314v.762H16.2v-.762Zm-1.524.762h-6.1V8.979A3.125,3.125,0,0,1,10.1,5.549a3.125,3.125,0,0,1,3.049,3.43Z" transform="translate(-0.951 -0.595)" fill="#fff"/>
    </g>
  </g>
</svg>
