<svg xmlns="http://www.w3.org/2000/svg" width="31" height="31" viewBox="0 0 31 31">
  <g id="Group_1267" data-name="Group 1267" transform="translate(-240 -521)">
    <circle id="Ellipse_56" data-name="Ellipse 56" cx="15.5" cy="15.5" r="15.5" transform="translate(240 521)" fill="#71c8ff"/>
    <path id="Icon_awesome-ad" data-name="Icon awesome-ad" d="M4.535,10.488H5.6L5.067,8.956Zm5.6-.461a.691.691,0,1,0,.691.691A.692.692,0,0,0,10.134,10.028ZM13.358,4.5H1.382A1.382,1.382,0,0,0,0,5.882v8.291a1.382,1.382,0,0,0,1.382,1.382H13.358a1.382,1.382,0,0,0,1.382-1.382V5.882A1.382,1.382,0,0,0,13.358,4.5ZM7.214,12.791H6.726a.461.461,0,0,1-.435-.309l-.212-.612H4.055l-.212.612a.461.461,0,0,1-.435.309H2.92a.461.461,0,0,1-.435-.612L4.031,7.728a.691.691,0,0,1,.653-.464h.768a.691.691,0,0,1,.653.464L7.649,12.18A.461.461,0,0,1,7.214,12.791Zm4.993-.461a.461.461,0,0,1-.461.461h-.461a.454.454,0,0,1-.345-.164,2.078,2.078,0,1,1-.116-3.855V7.724a.461.461,0,0,1,.461-.461h.461a.461.461,0,0,1,.461.461Z" transform="translate(248 526.5)" fill="#fff"/>
  </g>
</svg>
