<svg xmlns="http://www.w3.org/2000/svg" width="31" height="31" viewBox="0 0 31 31">
  <g id="Group_1268" data-name="Group 1268" transform="translate(-240 -570)">
    <circle id="Ellipse_56" data-name="Ellipse 56" cx="15.5" cy="15.5" r="15.5" transform="translate(240 570)" fill="#71c8ff"/>
    <path id="Path_1878" data-name="Path 1878" d="M10,2,5.723,9h8.557Zm0,2.987,1.5,2.458H8.492Zm4.278,5.57a3.5,3.5,0,1,0,3.5,3.5A3.5,3.5,0,0,0,14.279,10.557Zm0,5.445a1.945,1.945,0,1,1,1.945-1.945A1.945,1.945,0,0,1,14.279,16ZM3,17.169H9.223V10.946H3ZM4.556,12.5H7.667v3.111H4.556Z" transform="translate(245.334 574.887)" fill="#fff"/>
  </g>
</svg>
