<svg xmlns="http://www.w3.org/2000/svg" width="24.051" height="25.5" viewBox="0 0 24.051 25.5">
  <g id="Group_1265" data-name="Group 1265" transform="translate(-1646.037 -27)">
    <ellipse id="Ellipse_60" data-name="Ellipse 60" cx="6.425" cy="6.426" rx="6.425" ry="6.426" transform="translate(1651.566 27)" fill="#fe7235"/>
    <path id="Path_1578" data-name="Path 1578" d="M1052.742-1721.959a7.222,7.222,0,0,0-4.08-6.026,4.3,4.3,0,0,0-3.887.525c-.985.609-1.832,2.072-2.906,2.383a4.074,4.074,0,0,1-1.768.153c-1.339-.238-2.052-1.772-3.179-2.462a4.427,4.427,0,0,0-4.345-.353,6.876,6.876,0,0,0-3.845,5.781,6.87,6.87,0,0,0,3.69,6.976,14.566,14.566,0,0,0,8.318.528,14.563,14.563,0,0,0,8.311-.53A6.872,6.872,0,0,0,1052.742-1721.959Z" transform="translate(617.326 1766.579)" fill="#fe7235"/>
  </g>
</svg>
