<svg xmlns="http://www.w3.org/2000/svg" width="31" height="31" viewBox="0 0 31 31">
  <g id="Group_1273" data-name="Group 1273" transform="translate(0 0.037)">
    <circle id="Ellipse_56" data-name="Ellipse 56" cx="15.5" cy="15.5" r="15.5" transform="translate(0 -0.037)" fill="#71c8ff"/>
    <g id="account_balance_wallet-24px" transform="translate(7.186 7.354)">
      <path id="Path_1558" data-name="Path 1558" d="M0,0H16.091V16.091H0Z" fill="none"/>
      <path id="Path_1559" data-name="Path 1559" d="M15.068,13.057v.67a1.345,1.345,0,0,1-1.341,1.341H4.341A1.341,1.341,0,0,1,3,13.727V4.341A1.341,1.341,0,0,1,4.341,3h9.387a1.345,1.345,0,0,1,1.341,1.341v.67H9.034A1.341,1.341,0,0,0,7.693,6.352v5.364a1.341,1.341,0,0,0,1.341,1.341ZM9.034,11.716h6.7V6.352h-6.7Zm2.682-1.676a1.006,1.006,0,1,1,1.006-1.006A1,1,0,0,1,11.716,10.04Z" transform="translate(-0.989 -0.989)" fill="#fff"/>
    </g>
  </g>
</svg>
