<svg xmlns="http://www.w3.org/2000/svg" width="31" height="31" viewBox="0 0 31 31">
  <g id="Group_1639" data-name="Group 1639" transform="translate(-60 -625)">
    <circle id="Ellipse_56" data-name="Ellipse 56" cx="15.5" cy="15.5" r="15.5" transform="translate(60 625)" fill="#71c8ff"/>
    <path id="Icon_awesome-gift" data-name="Icon awesome-gift" d="M.879,13.677a.878.878,0,0,0,.879.879h4.4v-4.4H.879Zm7.032.879h4.4a.878.878,0,0,0,.879-.879V10.161H7.911Zm5.274-8.79H12.029a2.4,2.4,0,0,0,.277-1.1A2.421,2.421,0,0,0,9.889,2.25c-1.143,0-1.882.585-2.829,1.876C6.112,2.835,5.373,2.25,4.23,2.25A2.421,2.421,0,0,0,1.813,4.667a2.362,2.362,0,0,0,.277,1.1H.879A.878.878,0,0,0,0,6.645v2.2a.441.441,0,0,0,.44.44H13.625a.441.441,0,0,0,.44-.44v-2.2A.878.878,0,0,0,13.185,5.766Zm-8.958,0a1.1,1.1,0,0,1,0-2.2c.547,0,.95.091,2.365,2.2Zm5.661,0H7.524c1.412-2.1,1.8-2.2,2.365-2.2a1.1,1.1,0,0,1,0,2.2Z" transform="translate(68.688 631.477)" fill="#fff"/>
  </g>
</svg>
