<svg xmlns="http://www.w3.org/2000/svg" width="31" height="31" viewBox="0 0 31 31">
  <g id="Group_2568" data-name="Group 2568" transform="translate(-60 -576)">
    <g id="Group_1608" data-name="Group 1608" transform="translate(60 576)" opacity="0.485">
      <circle id="Ellipse_56" data-name="Ellipse 56" cx="15.5" cy="15.5" r="15.5" transform="translate(0)" fill="#9a9a9a"/>
    </g>
    <g id="Icon_ionic-ios-people" data-name="Icon ionic-ios-people" transform="translate(59.342 577.18)">
      <path id="Path_1950" data-name="Path 1950" d="M17.8,16.488c-.463-.156-1.218-.164-1.553-.284a2.256,2.256,0,0,1-.719-.315,3.954,3.954,0,0,1-.12-1.11,1.8,1.8,0,0,0,.409-.545,5.74,5.74,0,0,0,.2-1.071s.273.109.38-.4c.091-.444.264-.677.219-1s-.24-.249-.24-.249a2.774,2.774,0,0,0,.24-1.456,2.412,2.412,0,0,0-2.668-2.3,2.421,2.421,0,0,0-2.672,2.3,2.814,2.814,0,0,0,.235,1.456s-.194-.078-.24.249.124.561.219,1c.107.518.38.4.38.4a5.8,5.8,0,0,0,.2,1.071,1.8,1.8,0,0,0,.409.545,3.954,3.954,0,0,1-.12,1.11,2.173,2.173,0,0,1-.719.311c-.33.121-1.086.136-1.553.292a2.775,2.775,0,0,0-1.892,2.616h11.5A2.768,2.768,0,0,0,17.8,16.488Z" transform="translate(0.467 0)" fill="#fff"/>
      <path id="Path_1952" data-name="Path 1952" d="M25.187,15.981a3.017,3.017,0,0,1-1.38-.351c.64-.886.293-1.919.425-2.884a1.693,1.693,0,0,1,1.929-1.538h.017a1.7,1.7,0,0,1,1.912,1.538c.132.961-.235,2.111.421,2.884a2.8,2.8,0,0,1-1.384.313h0s-.041.543.041.633a1.09,1.09,0,0,0,.5.207,10.31,10.31,0,0,1,1.07.271,1.587,1.587,0,0,1,.933,1.4H26.352a2.867,2.867,0,0,0-1.322-1.124,3,3,0,0,0-1.02-.2s-.157-.226.359-.313a3.754,3.754,0,0,0,.793-.253C25.241,16.49,25.187,15.981,25.187,15.981Z" transform="translate(-5.976 -1.427)" fill="#fff"/>
    </g>
  </g>
</svg>
