<svg xmlns="http://www.w3.org/2000/svg" width="31" height="31" viewBox="0 0 31 31">
  <g id="Group_1609" data-name="Group 1609" transform="translate(0)" opacity="0.485">
    <circle id="Ellipse_56" data-name="Ellipse 56" cx="15.5" cy="15.5" r="15.5" transform="translate(0)" fill="#9a9a9a"/>
    <path id="Icon_awesome-warehouse" data-name="Icon awesome-warehouse" d="M10.478,7.319H2.836a.167.167,0,0,0-.166.166l0,1a.167.167,0,0,0,.166.166h7.645a.167.167,0,0,0,.166-.166v-1A.167.167,0,0,0,10.478,7.319Zm0,2H2.83a.167.167,0,0,0-.166.166l0,1a.167.167,0,0,0,.166.166h7.651a.167.167,0,0,0,.166-.166v-1A.167.167,0,0,0,10.478,9.315Zm0-3.992H2.84a.167.167,0,0,0-.166.166l0,1a.167.167,0,0,0,.166.166h7.641a.167.167,0,0,0,.166-.166v-1A.167.167,0,0,0,10.478,5.324Zm2.214-2.89L7.036.078a1,1,0,0,0-.767,0L.613,2.434A1,1,0,0,0,0,3.355V10.48a.167.167,0,0,0,.166.166H1.83A.167.167,0,0,0,2,10.48V5.324a.673.673,0,0,1,.678-.665h7.959a.673.673,0,0,1,.678.665V10.48a.167.167,0,0,0,.166.166H13.14a.167.167,0,0,0,.166-.166V3.355A1,1,0,0,0,12.693,2.434Z" transform="translate(8.688 9.895)" fill="#fff"/>
  </g>
</svg>
