<svg xmlns="http://www.w3.org/2000/svg" width="31" height="31" viewBox="0 0 31 31">
  <g id="Group_1630" data-name="Group 1630" transform="translate(-60 -239)">
    <circle id="Ellipse_56" data-name="Ellipse 56" cx="15.5" cy="15.5" r="15.5" transform="translate(60 239)" fill="#71c8ff"/>
    <path id="Icon_metro-paypal" data-name="Icon metro-paypal" d="M10.821,11.179h1.388c3.014,0,4.725-1.358,5.269-4.149.018-.092.033-.181.047-.269a4.416,4.416,0,0,0,.052-.522c.005-.112.008-.178.008-.24A2.211,2.211,0,0,0,17.4,5.13a2.989,2.989,0,0,0-.513-.768A4.525,4.525,0,0,0,13.45,3.085H8.722a.677.677,0,0,0-.668.571L7.2,9.152,6.139,16a.406.406,0,0,0,.4.469H8.859l.71-4.218a1.263,1.263,0,0,1,1.252-1.071Zm7.614-3.837c-.662,3.154-2.808,4.828-6.227,4.828H10.821a.277.277,0,0,0-.274.236L9.622,18.14h2.431a.592.592,0,0,0,.585-.5l.024-.125.464-2.939.03-.162a.592.592,0,0,1,.585-.5h.368c2.384,0,4.25-.969,4.8-3.769A3.234,3.234,0,0,0,18.435,7.342Z" transform="translate(63.502 244.624)" fill="#fff"/>
  </g>
</svg>
