<svg xmlns="http://www.w3.org/2000/svg" width="360" height="512" viewBox="0 0 360 512">
  <g id="Build" transform="translate(-76)">
    <path id="Path_1749" data-name="Path 1749" d="M256,0C156.7,0,76,80.7,76,180a177.5,177.5,0,0,0,27,94.5L243.8,504.915a14.214,14.214,0,0,0,10.2,6.9,14.933,14.933,0,0,0,15.3-7.2L410.5,272.1A177.525,177.525,0,0,0,436,180C436,80.7,355.3,0,256,0Zm0,270V90s90,40.5,90,90C346,228.9,256,270,256,270Z" fill="#54838b"/>
    <path id="Path_1750" data-name="Path 1750" d="M256,0V180l-.08,91.439L256,511.991a14.854,14.854,0,0,0,13.3-7.375L410.5,272.1A177.517,177.517,0,0,0,436,180C436,80.7,355.3,0,256,0Z" fill="#38656d"/>
    <g id="brick" transform="translate(155.637 73.127)">
      <path id="Path_1801" data-name="Path 1801" d="M70.621,353.578h48.6v27.774h-48.6Zm0,0" transform="translate(-42.847 -214.22)" fill="#fff"/>
      <path id="Path_1802" data-name="Path 1802" d="M282.484,272.87v20.2h48.6V265.3H318.035Zm0,0" transform="translate(-171.387 -160.661)" fill="#fff"/>
      <path id="Path_1803" data-name="Path 1803" d="M159.989,265.3H141.242v27.774h48.6V274.328l-22.15,4.721a9.051,9.051,0,0,1-1.667.174,8.138,8.138,0,0,1-7.118-11.908Zm0,0" transform="translate(-85.694 -160.661)" fill="#fff"/>
      <path id="Path_1804" data-name="Path 1804" d="M6.944,279.188H0v13.886H48.6V265.3H0v6.944H6.944a3.472,3.472,0,1,1,0,6.944Zm13.886-6.944H34.718a3.472,3.472,0,0,1,0,6.944H20.83a3.472,3.472,0,0,1,0-6.944Zm0,0" transform="translate(0 -160.66)" fill="#fff"/>
      <path id="Path_1805" data-name="Path 1805" d="M211.863,353.578h48.6v27.774h-48.6Zm0,0" transform="translate(-128.541 -214.22)" fill="#fff"/>
      <path id="Path_1806" data-name="Path 1806" d="M239.944,158.4a3.522,3.522,0,0,1-2.778-1.389,3.483,3.483,0,0,1,.694-4.861L252.2,141.387l-15.691-20.9a1.175,1.175,0,0,0-.939-.485H235.5a.755.755,0,0,0-.624.416l-33.329,62.005a1.187,1.187,0,0,0,1.249,1.667l68.88-14.651a.631.631,0,0,0,.556-.485,1.1,1.1,0,0,0-.174-1.077L256.365,146.94,242.027,157.7a3.58,3.58,0,0,1-2.083.694Zm0,0" transform="translate(-122.216 -72.504)" fill="#fff"/>
      <path id="Path_1807" data-name="Path 1807" d="M353.1,353.578h48.606v27.774H353.1Zm0,0" transform="translate(-214.232 -214.22)" fill="#fff"/>
      <path id="Path_1808" data-name="Path 1808" d="M282.484,441.852h48.6v27.774h-48.6Zm0,0" transform="translate(-171.387 -267.777)" fill="#fff"/>
      <path id="Path_1809" data-name="Path 1809" d="M0,441.852H48.6v27.774H0Zm0,0" transform="translate(0 -267.777)" fill="#fff"/>
      <path id="Path_1810" data-name="Path 1810" d="M141.242,441.852h48.6v27.774h-48.6Zm0,0" transform="translate(-85.694 -267.777)" fill="#fff"/>
      <path id="Path_1811" data-name="Path 1811" d="M397.857,4.654a10.442,10.442,0,0,0-14.582-2.083L354.633,24.062a3.482,3.482,0,0,0-.694,4.861l3.056,4.062L349.772,38.4a11.992,11.992,0,0,0-4.79,10.311l.347,6.25a5.055,5.055,0,0,1-2.048,4.338L330.5,68.882l4.166,5.554,12.776-9.582a11.929,11.929,0,0,0,4.792-10.276l-.347-6.25a5.159,5.159,0,0,1,2.048-4.374l7.222-5.417,3.054,4.062a3.581,3.581,0,0,0,2.292,1.355,2.141,2.141,0,0,0,.485.034,3.485,3.485,0,0,0,2.083-.694L397.717,21.8A10.42,10.42,0,0,0,399.8,7.223Zm-4.306,11.6L367.686,35.657,364.632,31.6l-3.056-4.062L387.441,8.126a3.477,3.477,0,0,1,4.861.694l1.943,2.569a3.415,3.415,0,0,1,.661,2.57,3.5,3.5,0,0,1-1.355,2.291Zm0,0" transform="translate(-200.522 0)" fill="#fff"/>
    </g>
  </g>
</svg>
