<svg xmlns="http://www.w3.org/2000/svg" width="22" height="23.516" viewBox="0 0 22 23.516">
  <g id="calendar_1_" data-name="calendar (1)" transform="translate(-11.8)">
    <g id="Group_243" data-name="Group 243" transform="translate(11.8)">
      <g id="Group_242" data-name="Group 242">
        <path id="Path_138" data-name="Path 138" d="M33.62,4.241a3.014,3.014,0,0,0-.9-1.568,3.77,3.77,0,0,0-2.673-1.105H28.454V.488a.488.488,0,0,0-.977,0V1.542h-9.3V.488a.488.488,0,1,0-.977,0V1.542H15.6a3.8,3.8,0,0,0-2.133.643,3.184,3.184,0,0,0-.565.463A3.77,3.77,0,0,0,11.8,5.32V19.738a3.773,3.773,0,0,0,3.778,3.778H30.022A3.773,3.773,0,0,0,33.8,19.738V5.371A3.362,3.362,0,0,0,33.62,4.241Zm-.745,15.523a2.809,2.809,0,0,1-2.827,2.853H15.6a2.808,2.808,0,0,1-2.827-2.827V8.4h20.1ZM32.9,7.453H12.777V5.346A2.808,2.808,0,0,1,15.6,2.519H17.2V3.572a.488.488,0,1,0,.977,0V2.519H27.5V3.572a.488.488,0,0,0,.977,0V2.519h1.593a2.838,2.838,0,0,1,2,.822,2.722,2.722,0,0,1,.771,1.439,4.2,4.2,0,0,1,.051.565Z" transform="translate(-11.8)" fill="#707070"/>
        <path id="Path_139" data-name="Path 139" d="M63.316,154.633A1.631,1.631,0,0,0,64.4,154.2a1.515,1.515,0,0,0,.437-1.079,1.527,1.527,0,0,0-2.6-1.079,1.515,1.515,0,0,0-.437,1.079,1.631,1.631,0,0,0,.437,1.079A1.515,1.515,0,0,0,63.316,154.633Zm-.437-1.928a.543.543,0,0,1,.411-.154.584.584,0,0,1,.411.154.543.543,0,0,1,.154.411.463.463,0,0,1-.154.411.543.543,0,0,1-.411.154.584.584,0,0,1-.411-.154.543.543,0,0,1-.154-.411A.584.584,0,0,1,62.879,152.705Z" transform="translate(-58.587 -141.859)" fill="#707070"/>
        <path id="Path_140" data-name="Path 140" d="M128.516,154.633a1.631,1.631,0,0,0,1.079-.437,1.515,1.515,0,0,0,.437-1.079,1.631,1.631,0,0,0-.437-1.079,1.431,1.431,0,0,0-1.079-.437,1.631,1.631,0,0,0-1.079.437,1.515,1.515,0,0,0-.437,1.079,1.631,1.631,0,0,0,.437,1.079A1.515,1.515,0,0,0,128.516,154.633Zm-.411-1.928a.543.543,0,0,1,.411-.154.584.584,0,0,1,.411.154.566.566,0,0,1-.411.977.584.584,0,0,1-.411-.154.543.543,0,0,1-.154-.411A.584.584,0,0,1,128.105,152.705Z" transform="translate(-119.598 -141.859)" fill="#707070"/>
        <path id="Path_141" data-name="Path 141" d="M194.116,154.633a1.631,1.631,0,0,0,1.079-.437,1.515,1.515,0,0,0,.437-1.079,1.631,1.631,0,0,0-.437-1.079,1.472,1.472,0,0,0-1.079-.437,1.631,1.631,0,0,0-1.079.437,1.472,1.472,0,0,0-.437,1.079,1.631,1.631,0,0,0,.437,1.079A1.515,1.515,0,0,0,194.116,154.633Zm-.411-1.9a.543.543,0,0,1,.411-.154.584.584,0,0,1,.411.154.566.566,0,0,1-.437.951.584.584,0,0,1-.411-.154.631.631,0,0,1-.129-.386A.584.584,0,0,1,193.705,152.731Z" transform="translate(-180.983 -141.859)" fill="#707070"/>
        <path id="Path_142" data-name="Path 142" d="M259.316,154.633a1.632,1.632,0,0,0,1.079-.437,1.515,1.515,0,0,0,.437-1.079,1.632,1.632,0,0,0-.437-1.079,1.533,1.533,0,0,0-1.079-.437,1.631,1.631,0,0,0-1.079.437,1.515,1.515,0,0,0-.437,1.079,1.631,1.631,0,0,0,.437,1.079A1.515,1.515,0,0,0,259.316,154.633Zm-.411-1.928a.543.543,0,0,1,.411-.154.584.584,0,0,1,.411.154.566.566,0,0,1-.411.977.584.584,0,0,1-.411-.154.543.543,0,0,1-.154-.411A.584.584,0,0,1,258.905,152.705Z" transform="translate(-241.994 -141.859)" fill="#707070"/>
        <path id="Path_143" data-name="Path 143" d="M63.316,220.233A1.631,1.631,0,0,0,64.4,219.8a1.515,1.515,0,0,0,.437-1.079,1.631,1.631,0,0,0-.437-1.079,1.515,1.515,0,0,0-1.079-.437,1.631,1.631,0,0,0-1.079.437,1.515,1.515,0,0,0-.437,1.079,1.631,1.631,0,0,0,.437,1.079A1.515,1.515,0,0,0,63.316,220.233Zm-.437-1.928a.543.543,0,0,1,.411-.154.584.584,0,0,1,.411.154.543.543,0,0,1,.154.411.491.491,0,0,1-.154.411.543.543,0,0,1-.411.154.584.584,0,0,1-.411-.154.543.543,0,0,1-.154-.411A.584.584,0,0,1,62.879,218.305Z" transform="translate(-58.587 -203.244)" fill="#707070"/>
        <path id="Path_144" data-name="Path 144" d="M128.516,220.233a1.631,1.631,0,0,0,1.079-.437,1.472,1.472,0,0,0,.437-1.079,1.631,1.631,0,0,0-.437-1.079,1.431,1.431,0,0,0-1.079-.437,1.631,1.631,0,0,0-1.079.437,1.515,1.515,0,0,0-.437,1.079,1.631,1.631,0,0,0,.437,1.079A1.515,1.515,0,0,0,128.516,220.233Zm-.411-1.928a.543.543,0,0,1,.411-.154.584.584,0,0,1,.411.154.543.543,0,0,1,.154.411.584.584,0,0,1-.154.411.543.543,0,0,1-.411.154.584.584,0,0,1-.411-.154.543.543,0,0,1-.154-.411A.584.584,0,0,1,128.105,218.305Z" transform="translate(-119.598 -203.244)" fill="#707070"/>
        <path id="Path_145" data-name="Path 145" d="M194.116,220.233a1.631,1.631,0,0,0,1.079-.437,1.472,1.472,0,0,0,.437-1.079,1.631,1.631,0,0,0-.437-1.079,1.472,1.472,0,0,0-1.079-.437,1.631,1.631,0,0,0-1.079.437,1.472,1.472,0,0,0-.437,1.079,1.631,1.631,0,0,0,.437,1.079A1.472,1.472,0,0,0,194.116,220.233Zm-.437-1.928a.543.543,0,0,1,.411-.154.584.584,0,0,1,.411.154.543.543,0,0,1,.154.411.491.491,0,0,1-.154.411.543.543,0,0,1-.411.154.584.584,0,0,1-.411-.154.543.543,0,0,1-.154-.411A.584.584,0,0,1,193.679,218.305Z" transform="translate(-180.983 -203.244)" fill="#707070"/>
        <path id="Path_146" data-name="Path 146" d="M259.316,220.233a1.632,1.632,0,0,0,1.079-.437,1.515,1.515,0,0,0,.437-1.079,1.632,1.632,0,0,0-.437-1.079,1.431,1.431,0,0,0-1.079-.437,1.631,1.631,0,0,0-1.079.437,1.515,1.515,0,0,0-.437,1.079,1.631,1.631,0,0,0,.437,1.079A1.515,1.515,0,0,0,259.316,220.233Zm-.411-1.928a.543.543,0,0,1,.411-.154.584.584,0,0,1,.411.154.543.543,0,0,1,.154.411.584.584,0,0,1-.154.411.543.543,0,0,1-.411.154.584.584,0,0,1-.411-.154.543.543,0,0,1-.154-.411A.584.584,0,0,1,258.905,218.305Z" transform="translate(-241.994 -203.244)" fill="#707070"/>
        <path id="Path_147" data-name="Path 147" d="M63.316,285.033A1.632,1.632,0,0,0,64.4,284.6a1.515,1.515,0,0,0,.437-1.079,1.631,1.631,0,0,0-.437-1.079A1.515,1.515,0,0,0,63.316,282a1.631,1.631,0,0,0-1.079.437,1.515,1.515,0,0,0-.437,1.079,1.631,1.631,0,0,0,.437,1.079A1.515,1.515,0,0,0,63.316,285.033Zm-.437-1.928a.543.543,0,0,1,.411-.154.584.584,0,0,1,.411.154.543.543,0,0,1,.154.411.491.491,0,0,1-.154.411.543.543,0,0,1-.411.154.584.584,0,0,1-.411-.154.543.543,0,0,1-.154-.411A.584.584,0,0,1,62.879,283.105Z" transform="translate(-58.587 -263.881)" fill="#707070"/>
        <path id="Path_148" data-name="Path 148" d="M128.516,285.033a1.632,1.632,0,0,0,1.079-.437,1.472,1.472,0,0,0,.437-1.079,1.631,1.631,0,0,0-.437-1.079,1.431,1.431,0,0,0-1.079-.437,1.631,1.631,0,0,0-1.079.437,1.515,1.515,0,0,0-.437,1.079,1.631,1.631,0,0,0,.437,1.079A1.515,1.515,0,0,0,128.516,285.033Zm-.411-1.928a.543.543,0,0,1,.411-.154.584.584,0,0,1,.411.154.543.543,0,0,1,.154.411.584.584,0,0,1-.154.411.543.543,0,0,1-.411.154.584.584,0,0,1-.411-.154.543.543,0,0,1-.154-.411A.584.584,0,0,1,128.105,283.105Z" transform="translate(-119.598 -263.881)" fill="#707070"/>
        <path id="Path_149" data-name="Path 149" d="M194.116,285.033a1.632,1.632,0,0,0,1.079-.437,1.472,1.472,0,0,0,.437-1.079,1.631,1.631,0,0,0-.437-1.079,1.515,1.515,0,0,0-1.079-.437,1.631,1.631,0,0,0-1.079.437,1.515,1.515,0,0,0-.437,1.079,1.632,1.632,0,0,0,.437,1.079A1.472,1.472,0,0,0,194.116,285.033Zm-.437-1.928a.543.543,0,0,1,.411-.154.584.584,0,0,1,.411.154.543.543,0,0,1,.154.411.49.49,0,0,1-.154.411.543.543,0,0,1-.411.154.584.584,0,0,1-.411-.154.543.543,0,0,1-.154-.411A.584.584,0,0,1,193.679,283.105Z" transform="translate(-180.983 -263.881)" fill="#707070"/>
        <path id="Path_150" data-name="Path 150" d="M259.316,285.033a1.632,1.632,0,0,0,1.079-.437,1.515,1.515,0,0,0,.437-1.079,1.632,1.632,0,0,0-.437-1.079,1.431,1.431,0,0,0-1.079-.437,1.631,1.631,0,0,0-1.079.437,1.515,1.515,0,0,0-.437,1.079,1.631,1.631,0,0,0,.437,1.079A1.515,1.515,0,0,0,259.316,285.033Zm-.411-1.928a.543.543,0,0,1,.411-.154.584.584,0,0,1,.411.154.543.543,0,0,1,.154.411.584.584,0,0,1-.154.411.543.543,0,0,1-.411.154.584.584,0,0,1-.411-.154.543.543,0,0,1-.154-.411A.584.584,0,0,1,258.905,283.105Z" transform="translate(-241.994 -263.881)" fill="#707070"/>
      </g>
    </g>
  </g>
</svg>
