<svg xmlns="http://www.w3.org/2000/svg" width="37.116" height="32.519" viewBox="0 0 37.116 32.519">
  <g id="cart" transform="translate(0 -34.425)">
    <g id="shopping-basket" transform="translate(0 34.425)">
      <path id="Path_1580" data-name="Path 1580" d="M27.582,46.343,20.09,35.106a2.1,2.1,0,0,0-1.362-.681,1.548,1.548,0,0,0-1.362.681L9.875,46.343H1.7a1.609,1.609,0,0,0-1.7,1.7v.511L4.256,64.39a3.471,3.471,0,0,0,3.235,2.554H29.625A3.281,3.281,0,0,0,32.86,64.39l4.256-15.834v-.511a1.609,1.609,0,0,0-1.7-1.7Zm-13.961,0,5.108-7.491,5.108,7.491Zm5.108,13.621a3.405,3.405,0,1,1,3.405-3.405A3.415,3.415,0,0,1,18.728,59.964Z" transform="translate(0 -34.425)" fill="#707070"/>
    </g>
  </g>
</svg>
