<svg xmlns="http://www.w3.org/2000/svg" width="28.4" height="28.4" viewBox="0 0 28.4 28.4">
  <path id="Path_3301" data-name="Path 3301" d="M213,320.837v4.107c-1.072.212-2.149.4-3.213.654a.949.949,0,0,0-.513.492c-.279.573-.473,1.188-.758,1.758a.7.7,0,0,0,.053.83c.6.863,1.167,1.749,1.713,2.576l-2.905,2.924c-.72-.475-1.5-.939-2.223-1.487a1.186,1.186,0,0,0-1.535-.127,14.4,14.4,0,0,1-1.479.612.8.8,0,0,0-.425.44c-.244,1.086-.445,2.182-.659,3.275h-4.107c-.212-1.072-.4-2.149-.654-3.212a.95.95,0,0,0-.492-.514c-.573-.279-1.188-.473-1.757-.759a.7.7,0,0,0-.831.053c-.863.6-1.749,1.166-2.58,1.715l-2.917-2.911c.472-.715.936-1.5,1.484-2.219a1.189,1.189,0,0,0,.129-1.536,14.43,14.43,0,0,1-.612-1.48.8.8,0,0,0-.441-.424c-1.086-.244-2.182-.445-3.275-.659v-4.107c1.092-.215,2.188-.415,3.274-.659a.8.8,0,0,0,.442-.423c.276-.6.479-1.229.769-1.819a.706.706,0,0,0-.051-.831c-.6-.862-1.167-1.749-1.718-2.584l2.921-2.909c.688.453,1.459.9,2.157,1.441a1.227,1.227,0,0,0,1.641.134,12.54,12.54,0,0,1,1.364-.57.96.96,0,0,0,.494-.514c.249-1.064.442-2.14.654-3.213h4.107c.212,1.072.4,2.149.653,3.212a.948.948,0,0,0,.492.514c.573.279,1.187.474,1.758.757a.7.7,0,0,0,.83-.049c.862-.6,1.749-1.167,2.584-1.719l2.907,2.924c-.45.683-.9,1.454-1.438,2.153a1.228,1.228,0,0,0-.136,1.641,12.6,12.6,0,0,1,.57,1.364.961.961,0,0,0,.514.494C210.851,320.432,211.928,320.624,213,320.837ZM198.982,318a4.886,4.886,0,1,0,4.9,4.853A4.941,4.941,0,0,0,198.982,318Z" transform="translate(-184.8 -308.69)" fill="#54b3ea" stroke="#707070" stroke-width="0.4"/>
</svg>
