<svg xmlns="http://www.w3.org/2000/svg" width="24" height="24" viewBox="0 0 24 24">
  <path id="dollar" d="M20.483,3.517a12,12,0,1,0,0,16.967A11.991,11.991,0,0,0,20.483,3.517Zm-9.078,7.171,1.943.8a3.367,3.367,0,0,1,1.2,5.388,3.46,3.46,0,0,1-1.567.966v.661a.985.985,0,0,1-1.971,0v-.66a3.488,3.488,0,0,1-2.5-3.345.985.985,0,1,1,1.971,0,1.52,1.52,0,0,0,2.584,1.079,1.393,1.393,0,0,0-.473-2.268l-1.943-.8a3.367,3.367,0,0,1-1.2-5.392,3.475,3.475,0,0,1,1.564-.966V5.493a.985.985,0,1,1,1.971,0v.659a3.494,3.494,0,0,1,2.5,3.345.985.985,0,0,1-1.971,0A1.519,1.519,0,0,0,10.89,8.462a1.394,1.394,0,0,0,.515,2.225Z" transform="translate(0)" fill="#333"/>
</svg>
