<svg xmlns="http://www.w3.org/2000/svg" width="23.63" height="21.001" viewBox="0 0 23.63 21.001">
  <path id="Icon_awesome-edit" data-name="Icon awesome-edit" d="M16.517,3.416l3.7,3.7a.4.4,0,0,1,0,.566l-8.96,8.96-3.807.423a.8.8,0,0,1-.882-.882l.423-3.807,8.96-8.96A.4.4,0,0,1,16.517,3.416Zm6.646-.939-2-2a1.6,1.6,0,0,0-2.265,0L17.444,1.927a.4.4,0,0,0,0,.566l3.7,3.7a.4.4,0,0,0,.566,0l1.452-1.452a1.6,1.6,0,0,0,0-2.265ZM15.754,14.206v4.176H2.626V5.254h9.428a.5.5,0,0,0,.349-.144L14.043,3.47a.492.492,0,0,0-.349-.841H1.969A1.97,1.97,0,0,0,0,4.6V19.039a1.97,1.97,0,0,0,1.969,1.969H16.41a1.97,1.97,0,0,0,1.969-1.969V12.565a.493.493,0,0,0-.841-.349L15.9,13.857A.5.5,0,0,0,15.754,14.206Z" transform="translate(0 -0.007)" fill="#fe7235"/>
</svg>
