<svg xmlns="http://www.w3.org/2000/svg" width="360" height="512" viewBox="0 0 360 512">
  <g id="Fashion" transform="translate(-76)">
    <path id="Path_1749" data-name="Path 1749" d="M256,0C156.7,0,76,80.7,76,180a177.5,177.5,0,0,0,27,94.5L243.8,504.915a14.214,14.214,0,0,0,10.2,6.9,14.933,14.933,0,0,0,15.3-7.2L410.5,272.1A177.525,177.525,0,0,0,436,180C436,80.7,355.3,0,256,0Zm0,270V90s90,40.5,90,90C346,228.9,256,270,256,270Z" fill="#ff2492"/>
    <path id="Path_1750" data-name="Path 1750" d="M256,0V511.991a14.854,14.854,0,0,0,13.3-7.375L410.5,272.1A177.517,177.517,0,0,0,436,180C436,80.7,355.3,0,256,0Z" fill="#d3006a"/>
    <g id="dress" transform="translate(149.365 96)">
      <g id="Group_1151" data-name="Group 1151" transform="translate(69.238)">
        <g id="Group_1150" data-name="Group 1150" transform="translate(0)">
          <path id="Path_1752" data-name="Path 1752" d="M225.858,21.2V0H214.505V24.387a42.409,42.409,0,0,0-18.272,15.32l-2.542,3.813-2.542-3.813a42.409,42.409,0,0,0-18.272-15.32V0H161.524V21.2a42.447,42.447,0,0,0-5.677-.385V45.791A22.706,22.706,0,0,0,178.553,68.5h30.275a22.706,22.706,0,0,0,22.706-22.706V20.814A42.452,42.452,0,0,0,225.858,21.2Z" transform="translate(-155.847)" fill="#fff"/>
        </g>
      </g>
      <g id="Group_1153" data-name="Group 1153" transform="translate(16.635 79.851)">
        <g id="Group_1152" data-name="Group 1152">
          <path id="Path_1753" data-name="Path 1753" d="M133.573,211.323H80.591L16.635,311.231v.379a313.56,313.56,0,0,0,180.894,0v-.379Z" transform="translate(-16.635 -211.323)" fill="#fff"/>
        </g>
      </g>
    </g>
  </g>
</svg>
