<svg id="globe" xmlns="http://www.w3.org/2000/svg" width="24" height="24" viewBox="0 0 24 24">
  <path id="Path_62" data-name="Path 62" d="M21.795,5.081c-.183-.258-.373-.51-.576-.752A11.978,11.978,0,0,0,12,0h-.07A11.982,11.982,0,0,0,2.781,4.329q-.3.364-.576.752a11.958,11.958,0,0,0,0,13.839c.183.258.374.51.576.752A11.98,11.98,0,0,0,11.93,24H12a11.978,11.978,0,0,0,9.219-4.329c.2-.242.393-.494.576-.752a11.958,11.958,0,0,0,0-13.839Zm-13.3-3.52A11.226,11.226,0,0,0,5.841,6.046,11.446,11.446,0,0,1,3.576,4.919,11.045,11.045,0,0,1,8.492,1.561ZM3,5.672A12.639,12.639,0,0,0,5.561,6.965,19.126,19.126,0,0,0,4.9,11.9H.987A10.952,10.952,0,0,1,3,5.672ZM1.024,12.884h3.9a18.916,18.916,0,0,0,.637,4.152A12.567,12.567,0,0,0,3,18.329,10.941,10.941,0,0,1,1.024,12.884Zm2.556,6.2A11.514,11.514,0,0,1,5.84,17.954a11.216,11.216,0,0,0,2.652,4.485A11.042,11.042,0,0,1,3.579,19.079Zm7.929,3.9c-2.021-.277-3.764-2.349-4.753-5.333a18.2,18.2,0,0,1,4.753-.728Zm0-7.045a18.752,18.752,0,0,0-5.029.788,18.257,18.257,0,0,1-.569-3.839h5.6Zm0-4.036H5.889a18.587,18.587,0,0,1,.594-4.62,18.755,18.755,0,0,0,5.024.787V11.9Zm0-4.817a18.174,18.174,0,0,1-4.75-.727C7.746,3.372,9.488,1.3,11.508,1.02Zm11.5,4.817H19.038a19.117,19.117,0,0,0-.651-4.914A12.631,12.631,0,0,0,21,5.673,10.953,10.953,0,0,1,23.012,11.9ZM20.423,4.92a11.493,11.493,0,0,1-2.315,1.145A11.2,11.2,0,0,0,15.42,1.531,11.046,11.046,0,0,1,20.423,4.92Zm-7.93-3.893c2,.309,3.72,2.379,4.7,5.342a18.2,18.2,0,0,1-4.7.712Zm0,7.038A18.785,18.785,0,0,0,17.463,7.3a18.543,18.543,0,0,1,.59,4.6H12.493Zm0,4.818h5.541a18.331,18.331,0,0,1-.565,3.823,18.787,18.787,0,0,0-4.975-.772V12.884Zm0,10.089V16.919a18.234,18.234,0,0,1,4.7.712C16.214,20.6,14.49,22.664,12.493,22.973Zm2.927-.5a11.187,11.187,0,0,0,2.69-4.533,11.506,11.506,0,0,1,2.312,1.143A11.049,11.049,0,0,1,15.42,22.47ZM21,18.329a12.6,12.6,0,0,0-2.615-1.313,18.909,18.909,0,0,0,.63-4.133h3.959A10.925,10.925,0,0,1,21,18.329Z" fill="#707070"/>
</svg>
