<svg xmlns="http://www.w3.org/2000/svg" width="35" height="30.898" viewBox="0 0 35 30.898">
  <g id="heart_1_" data-name="heart (1)" transform="translate(0 -30)">
    <g id="Group_75" data-name="Group 75" transform="translate(0 30)">
      <path id="Path_44" data-name="Path 44" d="M25.7,30a8.287,8.287,0,0,0-5.175,1.789A11.789,11.789,0,0,0,17.5,35.43a11.788,11.788,0,0,0-3.028-3.641A8.287,8.287,0,0,0,9.3,30C4,30,0,34.335,0,40.084c0,6.211,4.986,10.46,12.535,16.893,1.282,1.092,2.735,2.331,4.245,3.651a1.094,1.094,0,0,0,1.44,0c1.51-1.321,2.963-2.559,4.246-3.652C30.014,50.544,35,46.295,35,40.084,35,34.335,31,30,25.7,30Z" transform="translate(0 -30)" fill="#707070"/>
    </g>
  </g>
</svg>
