<svg id="info_1_" data-name="info (1)" xmlns="http://www.w3.org/2000/svg" width="23.9" height="23.9" viewBox="0 0 23.9 23.9">
  <g id="Group_1173" data-name="Group 1173">
    <g id="Group_1172" data-name="Group 1172">
      <path id="Path_1820" data-name="Path 1820" d="M11.95,0A11.95,11.95,0,1,0,23.9,11.95,11.943,11.943,0,0,0,11.95,0Zm0,22.307A10.357,10.357,0,1,1,22.307,11.95,10.368,10.368,0,0,1,11.95,22.307Z" fill="red"/>
    </g>
  </g>
  <g id="Group_1175" data-name="Group 1175" transform="translate(11.153 9.792)">
    <g id="Group_1174" data-name="Group 1174">
      <path id="Path_1821" data-name="Path 1821" d="M239.727,209.777a.8.8,0,0,0-.8.8v6.72a.8.8,0,1,0,1.593,0v-6.72A.8.8,0,0,0,239.727,209.777Z" transform="translate(-238.93 -209.777)" fill="red"/>
    </g>
  </g>
  <g id="Group_1177" data-name="Group 1177" transform="translate(10.357 5.794)">
    <g id="Group_1176" data-name="Group 1176">
      <path id="Path_1822" data-name="Path 1822" d="M223.46,124.122a1.593,1.593,0,1,0,1.593,1.593A1.6,1.6,0,0,0,223.46,124.122Z" transform="translate(-221.867 -124.122)" fill="red"/>
    </g>
  </g>
</svg>
