<svg xmlns="http://www.w3.org/2000/svg" width="65" height="65" viewBox="0 0 65 65">
  <g id="instagram-sketched" opacity="0.3">
    <path id="Path_1817" data-name="Path 1817" d="M219.441,213.221A6.221,6.221,0,1,1,213.221,207,6.221,6.221,0,0,1,219.441,213.221Zm0,0" transform="translate(-180.721 -180.721)"/>
    <path id="Path_1818" data-name="Path 1818" d="M165.333,139.782a6.18,6.18,0,0,0-3.542-3.542,10.325,10.325,0,0,0-3.465-.642c-1.968-.09-2.558-.109-7.541-.109s-5.574.019-7.541.109a10.332,10.332,0,0,0-3.465.643,6.183,6.183,0,0,0-3.542,3.542,10.329,10.329,0,0,0-.642,3.465c-.09,1.968-.109,2.558-.109,7.541s.019,5.573.109,7.541a10.326,10.326,0,0,0,.642,3.465,6.18,6.18,0,0,0,3.542,3.542,10.312,10.312,0,0,0,3.465.643c1.968.09,2.557.109,7.541.109s5.574-.019,7.541-.109a10.313,10.313,0,0,0,3.465-.643,6.18,6.18,0,0,0,3.542-3.542,10.335,10.335,0,0,0,.643-3.465c.09-1.968.109-2.558.109-7.541s-.019-5.574-.109-7.541A10.313,10.313,0,0,0,165.333,139.782Zm-14.548,20.589a9.583,9.583,0,1,1,9.583-9.583A9.583,9.583,0,0,1,150.785,160.371Zm9.962-17.305a2.24,2.24,0,1,1,2.24-2.24A2.24,2.24,0,0,1,160.746,143.066Zm0,0" transform="translate(-118.285 -118.288)"/>
    <path id="Path_1819" data-name="Path 1819" d="M32.5,0A32.5,32.5,0,1,0,65,32.5,32.5,32.5,0,0,0,32.5,0ZM51.05,40.194a13.692,13.692,0,0,1-.867,4.53,9.542,9.542,0,0,1-5.458,5.458,13.7,13.7,0,0,1-4.53.867c-1.99.091-2.626.113-7.694.113s-5.7-.022-7.695-.113a13.7,13.7,0,0,1-4.53-.867,9.542,9.542,0,0,1-5.458-5.458,13.689,13.689,0,0,1-.867-4.53c-.092-1.991-.113-2.626-.113-7.695s.021-5.7.113-7.694a13.693,13.693,0,0,1,.867-4.53,9.549,9.549,0,0,1,5.458-5.458,13.7,13.7,0,0,1,4.53-.867c1.99-.091,2.626-.113,7.694-.113s5.7.022,7.694.113a13.708,13.708,0,0,1,4.53.866,9.545,9.545,0,0,1,5.458,5.458,13.691,13.691,0,0,1,.868,4.53c.091,1.99.112,2.626.112,7.694S51.141,38.2,51.05,40.194Zm0,0"/>
  </g>
</svg>
