<svg xmlns="http://www.w3.org/2000/svg" width="360" height="512" viewBox="0 0 360 512">
  <g id="Interiors" transform="translate(-76)">
    <path id="Path_1749" data-name="Path 1749" d="M256,0C156.7,0,76,80.7,76,180a177.5,177.5,0,0,0,27,94.5L243.8,504.915a14.214,14.214,0,0,0,10.2,6.9,14.933,14.933,0,0,0,15.3-7.2L410.5,272.1A177.525,177.525,0,0,0,436,180C436,80.7,355.3,0,256,0Zm0,270V90s90,40.5,90,90C346,228.9,256,270,256,270Z" fill="#fd0"/>
    <path id="Path_1750" data-name="Path 1750" d="M256,0V511.991a14.854,14.854,0,0,0,13.3-7.375L410.5,272.1A177.517,177.517,0,0,0,436,180C436,80.7,355.3,0,256,0Z" fill="#d8ba00"/>
    <g id="sofa" transform="translate(152.74 38.632)">
      <g id="Group_1160" data-name="Group 1160" transform="translate(0 90.155)">
        <g id="Group_1155" data-name="Group 1155" transform="translate(24.107 0)">
          <path id="Path_1791" data-name="Path 1791" d="M92.289,138.167v12.455h45.4V106.108a15.952,15.952,0,0,0-15.952-15.952H81.323a15.952,15.952,0,0,0-15.952,15.952v7.952h2.812A24.134,24.134,0,0,1,92.289,138.167Z" transform="translate(-65.371 -90.156)" fill="#fff"/>
        </g>
        <g id="Group_1156" data-name="Group 1156" transform="translate(0 35.958)">
          <path id="Path_1792" data-name="Path 1792" d="M193.652,187.665H178.787a12.067,12.067,0,0,0-12.053,12.053v24.508H38.972V199.718a12.067,12.067,0,0,0-12.053-12.053H12.053A12.067,12.067,0,0,0,0,199.718V254.76a12.067,12.067,0,0,0,12.053,12.053h181.6a12.067,12.067,0,0,0,12.053-12.053V199.718A12.067,12.067,0,0,0,193.652,187.665Z" transform="translate(0 -187.665)" fill="#fff"/>
        </g>
        <g id="Group_1157" data-name="Group 1157" transform="translate(108.477)">
          <path id="Path_1793" data-name="Path 1793" d="M340.366,138.166a24.134,24.134,0,0,1,24.106-24.106h2.812v-7.775a16.13,16.13,0,0,0-16.13-16.13H310.293a16.13,16.13,0,0,0-16.13,16.13v44.336h46.2Z" transform="translate(-294.163 -90.155)" fill="#fff"/>
        </g>
        <g id="Group_1158" data-name="Group 1158" transform="translate(159.438 127.16)">
          <path id="Path_1794" data-name="Path 1794" d="M434.682,442.74a6.026,6.026,0,0,0,5.772,4.3h20.089a6.027,6.027,0,0,0,6.026-6.026v-6.026H432.355Z" transform="translate(-432.355 -434.982)" fill="#fff"/>
        </g>
        <g id="Group_1159" data-name="Group 1159" transform="translate(12.053 127.16)">
          <path id="Path_1795" data-name="Path 1795" d="M32.685,441.007a6.027,6.027,0,0,0,6.026,6.026H58.8a6.026,6.026,0,0,0,5.772-4.295L66.9,434.98H32.685Z" transform="translate(-32.685 -434.98)" fill="#fff"/>
        </g>
      </g>
    </g>
  </g>
</svg>
