<svg xmlns="http://www.w3.org/2000/svg" width="360" height="512" viewBox="0 0 360 512">
  <g id="Laptop" transform="translate(-76)">
    <path id="Path_1749" data-name="Path 1749" d="M256,0C156.7,0,76,80.7,76,180a177.5,177.5,0,0,0,27,94.5L243.8,504.915a14.214,14.214,0,0,0,10.2,6.9,14.933,14.933,0,0,0,15.3-7.2L410.5,272.1A177.525,177.525,0,0,0,436,180C436,80.7,355.3,0,256,0Zm0,270V90s90,40.5,90,90C346,228.9,256,270,256,270Z" fill="#3abcac"/>
    <path id="Path_1750" data-name="Path 1750" d="M256,0l-.32,89.24L256,179.4l-.32,93.08L256,511.991a14.854,14.854,0,0,0,13.3-7.375L410.5,272.1A177.517,177.517,0,0,0,436,180C436,80.7,355.3,0,256,0Z" fill="#0f9f8d"/>
  </g>
</svg>
