<svg xmlns="http://www.w3.org/2000/svg" width="16.105" height="16.084" viewBox="0 0 16.105 16.084">
  <g id="map" transform="translate(0 -0.25)">
    <path id="Path_1619" data-name="Path 1619" d="M10.006,157.891a.324.324,0,0,1-.459,0l-2.805-2.808a2.35,2.35,0,0,1-.337-.391v8.121a.486.486,0,0,0,.367.478l4.6,1.147v-7.893Z" transform="translate(-6.142 -148.103)" fill="#fff"/>
    <circle id="Ellipse_76" data-name="Ellipse 76" cx="1.316" cy="1.316" r="1.316" transform="translate(2.359 2.563)" fill="#fff"/>
    <path id="Path_1620" data-name="Path 1620" d="M6.269,1.36l-.018-.018s0-.008,0-.009A3.59,3.59,0,0,0,3.684.25H3.672A3.683,3.683,0,0,0,1.061,6.512l2.576,2.58L6.252,6.513A3.643,3.643,0,0,0,6.269,1.36ZM3.675,5.852A1.973,1.973,0,0,1,1.7,3.879h0A1.975,1.975,0,0,1,3.675,1.906h0a1.973,1.973,0,0,1,0,3.946Z" transform="translate(0)" fill="#fff"/>
    <path id="Path_1621" data-name="Path 1621" d="M284.636,56.669h0l-4.23-1.114V68.134l3.982,1.063a.5.5,0,0,0,.431-.085.481.481,0,0,0,.184-.391V57.146A.492.492,0,0,0,284.636,56.669Z" transform="translate(-268.898 -53.035)" fill="#fff"/>
    <path id="Path_1622" data-name="Path 1622" d="M145.435,55.975a4.219,4.219,0,0,1-1.2,3.776l-.828.815v8.541l4.966-1.24V55.281Z" transform="translate(-137.52 -52.772)" fill="#fff"/>
  </g>
</svg>
