<svg xmlns="http://www.w3.org/2000/svg" width="360" height="512" viewBox="0 0 360 512">
  <g id="Medical" transform="translate(-76)">
    <path id="Path_1749" data-name="Path 1749" d="M256,0C156.7,0,76,80.7,76,180a177.5,177.5,0,0,0,27,94.5L243.8,504.915a14.214,14.214,0,0,0,10.2,6.9,14.933,14.933,0,0,0,15.3-7.2L410.5,272.1A177.525,177.525,0,0,0,436,180C436,80.7,355.3,0,256,0Zm0,270V90s90,40.5,90,90C346,228.9,256,270,256,270Z" fill="#14c8e4"/>
    <path id="Path_1750" data-name="Path 1750" d="M256,0V511.991a14.854,14.854,0,0,0,13.3-7.375L410.5,272.1A177.517,177.517,0,0,0,436,180C436,80.7,355.3,0,256,0Z" fill="#00aeca"/>
    <g id="heart_2_" data-name="heart (2)" transform="translate(150.8 87.998)">
      <g id="Layer_2_17_" transform="translate(0 27.88)">
        <g id="Group_1154" data-name="Group 1154">
          <path id="Path_1754" data-name="Path 1754" d="M85.162,67.668A4,4,0,0,1,92.9,68.677l6.385,74.6,11.956-43.1a4,4,0,0,1,7.744.171l6.658,28.884,11.368-47.763a4,4,0,0,1,7.844.37l8.484,60.484,3.8-12.292a4,4,0,0,1,3.817-2.814h42.746c6.274-9.446,10.739-18.851,12.224-27.9,3.26-20.022.08-36.535-9.474-49.071-9.648-12.656-24.3-19.877-44.844-22.077a54.978,54.978,0,0,0-5.565-.292,65.267,65.267,0,0,0-40.46,14.551A65.207,65.207,0,0,0,75.16,27.88a55.209,55.209,0,0,0-5.58.292c-20.541,2.2-35.212,9.421-44.847,22.077C15.181,62.786,12,79.3,15.259,99.32c1.509,9.189,6.088,18.746,12.514,28.338H63.637Z" transform="translate(-7.018 -27.88)" fill="#fff"/>
          <path id="Path_1755" data-name="Path 1755" d="M175.238,221.623a4,4,0,0,1-7.774-.626l-8.028-57.231-10.414,43.757a4,4,0,0,1-3.887,3.071h-.014a4,4,0,0,1-3.88-3.1l-6.954-30.167L120.6,226.66a4,4,0,0,1-3.847,2.928c-.124,0-.248-.006-.373-.017a4,4,0,0,1-3.611-3.638l-6.718-78.492L89.761,192.849A4,4,0,0,1,86,195.5H53.078c13.286,17.311,31.493,34.442,47.448,49.451,0,0,13.6,13.65,17.677,17.148,3.08,2.637,9.731,7.937,16.951,7.937s13.877-5.3,16.938-7.937c4.081-3.5,17.677-17.148,17.677-17.148,16.089-15.135,34.469-32.432,47.783-49.891H183.461Z" transform="translate(-26.569 -87.727)" fill="#fff"/>
          <path id="Path_1756" data-name="Path 1756" d="M205.384,164.442H153.946a4,4,0,0,0-3.817,2.814l-3.8,12.292-8.484-60.484a4,4,0,0,0-7.844-.37l-11.368,47.763-6.658-28.884a4,4,0,0,0-7.744-.171L92.271,180.5l-6.385-74.6a4,4,0,0,0-7.742-1.009L56.62,164.882H4a4,4,0,1,0,0,7.991H59.431a4,4,0,0,0,3.761-2.646l16.293-45.409L86.2,203.309a4,4,0,0,0,3.611,3.638c.125.011.249.017.373.017a4,4,0,0,0,3.847-2.928l13.686-49.33,6.954,30.167a4,4,0,0,0,3.88,3.1h.014a4,4,0,0,0,3.887-3.071l10.414-43.757,8.028,57.231a4,4,0,0,0,7.774.626l8.222-26.568h48.493a4,4,0,0,0,0-7.991Z" transform="translate(0 -65.104)" fill="#14c8e4"/>
        </g>
      </g>
    </g>
  </g>
</svg>
