<svg xmlns="http://www.w3.org/2000/svg" width="360" height="512" viewBox="0 0 360 512">
  <g id="Motobike" transform="translate(-76)">
    <path id="Path_1749" data-name="Path 1749" d="M256,0C156.7,0,76,80.7,76,180a177.5,177.5,0,0,0,27,94.5L243.8,504.915a14.214,14.214,0,0,0,10.2,6.9,14.933,14.933,0,0,0,15.3-7.2L410.5,272.1A177.525,177.525,0,0,0,436,180C436,80.7,355.3,0,256,0Zm0,270V90s90,40.5,90,90C346,228.9,256,270,256,270Z" fill="#ffa724"/>
    <path id="Path_1750" data-name="Path 1750" d="M256,0V511.991a14.854,14.854,0,0,0,13.3-7.375L410.5,272.1A177.517,177.517,0,0,0,436,180C436,80.7,355.3,0,256,0Z" fill="#e18700"/>
    <g id="XMLID_131_" transform="translate(114.367 110.388)">
      <path id="XMLID_134_" d="M222.069,295.528a15.316,15.316,0,0,0-15.315,15.315v56.8a15.315,15.315,0,0,0,30.63,0v-56.8A15.316,15.316,0,0,0,222.069,295.528Z" transform="translate(-80.433 -153.236)" fill="#fff"/>
      <path id="XMLID_133_" d="M223.975,40.178h-13.73a15.254,15.254,0,0,0-13.191-7.657H171.637l15.083-8.959H211.86a3.954,3.954,0,0,0,3.956-3.952V3.952A3.954,3.954,0,0,0,211.86,0H195.477a12.209,12.209,0,0,0-11.24,7.449,6.743,6.743,0,0,0-.927.325L161.13,20.946a32.747,32.747,0,0,1,9.692,11.575,32.353,32.353,0,0,1,3.612,14.645c0,16.866-14.007,32.8-32.806,32.8-18.829,0-32.8-15.98-32.8-32.8a32.358,32.358,0,0,1,3.611-14.645,32.761,32.761,0,0,1,9.692-11.579L99.962,7.773a7.345,7.345,0,0,0-.927-.325A12.191,12.191,0,0,0,87.8,0H71.411a3.955,3.955,0,0,0-3.956,3.952V19.61a3.954,3.954,0,0,0,3.956,3.952H96.552l15.083,8.959H86.21a15.254,15.254,0,0,0-13.191,7.657H59.29a7.657,7.657,0,1,0,0,15.315H73.02A15.254,15.254,0,0,0,86.21,63.15h7.477a87.28,87.28,0,0,0-9.063,39.24c0,27.8,12.242,60.242,30.211,77.594V157.606a26.8,26.8,0,1,1,53.6,0v22.378c17.969-17.352,30.211-49.8,30.211-77.594a87.28,87.28,0,0,0-9.063-39.24h7.47a15.256,15.256,0,0,0,13.191-7.657h13.73a7.657,7.657,0,1,0,0-15.314Z" fill="#fff"/>
      <path id="XMLID_132_" d="M219.719,96.617a17.487,17.487,0,1,0,0-34.974H219.7a17.487,17.487,0,0,0,.015,34.974Z" transform="translate(-78.09 -31.963)" fill="#fff"/>
    </g>
  </g>
</svg>
