<svg xmlns="http://www.w3.org/2000/svg" width="24.008" height="23.997" viewBox="0 0 24.008 23.997">
  <g id="call" transform="translate(0 -0.115)">
    <g id="Group_97" data-name="Group 97" transform="translate(0 0.115)">
      <path id="Path_72" data-name="Path 72" d="M359.745,240.127a.606.606,0,1,0,.431.178A.615.615,0,0,0,359.745,240.127Z" transform="translate(-340.909 -227.946)" fill="#707070"/>
      <path id="Path_73" data-name="Path 73" d="M258.48,91.234a.608.608,0,0,0,.472.721.542.542,0,0,0,.127.015.608.608,0,1,0-.6-.736Z" transform="translate(-245.349 -86.153)" fill="#707070"/>
      <path id="Path_74" data-name="Path 74" d="M339.439,145.093a.61.61,0,1,0,.848.162A.611.611,0,0,0,339.439,145.093Z" transform="translate(-321.959 -137.637)" fill="#707070"/>
      <path id="Path_75" data-name="Path 75" d="M304.177,110.207a.611.611,0,0,0,.162.848.616.616,0,0,0,.848-.167.609.609,0,1,0-1.01-.68Z" transform="translate(-288.64 -104.365)" fill="#707070"/>
      <path id="Path_76" data-name="Path 76" d="M358.38,191.2a.606.606,0,0,0,.594.482.575.575,0,0,0,.127-.015.609.609,0,0,0-.249-1.193A.616.616,0,0,0,358.38,191.2Z" transform="translate(-340.179 -180.797)" fill="#707070"/>
      <path id="Path_77" data-name="Path 77" d="M209.545,89.927a.607.607,0,1,0,.431.178A.615.615,0,0,0,209.545,89.927Z" transform="translate(-198.332 -85.369)" fill="#707070"/>
      <path id="Path_78" data-name="Path 78" d="M446.545,243.027a.607.607,0,1,0,.431.178A.615.615,0,0,0,446.545,243.027Z" transform="translate(-423.304 -230.699)" fill="#707070"/>
      <path id="Path_79" data-name="Path 79" d="M428.46,114.334a.609.609,0,1,0-1.091.543.609.609,0,0,0,1.091-.543Z" transform="translate(-405.62 -108.217)" fill="#707070"/>
      <path id="Path_80" data-name="Path 80" d="M335.526,22.987a.589.589,0,0,0,.274.066.607.607,0,0,0,.269-1.152h0a.607.607,0,1,0-.543,1.086Z" transform="translate(-318.177 -20.733)" fill="#707070"/>
      <path id="Path_81" data-name="Path 81" d="M250.719,1.333h.02a.609.609,0,0,0,.02-1.218.6.6,0,0,0-.629.584A.619.619,0,0,0,250.719,1.333Z" transform="translate(-237.436 -0.115)" fill="#707070"/>
      <path id="Path_82" data-name="Path 82" d="M294.237,7.658a.524.524,0,0,0,.152.02.615.615,0,1,0-.152-.02Z" transform="translate(-278.867 -6.14)" fill="#707070"/>
      <path id="Path_83" data-name="Path 83" d="M404.559,77.063a.61.61,0,0,0-.949.766.614.614,0,0,0,.472.228.6.6,0,0,0,.381-.137A.612.612,0,0,0,404.559,77.063Z" transform="translate(-382.998 -72.941)" fill="#707070"/>
      <path id="Path_84" data-name="Path 84" d="M449.024,199.651a.61.61,0,0,0,.609.589h.02a.609.609,0,1,0-.041-1.218A.6.6,0,0,0,449.024,199.651Z" transform="translate(-426.235 -188.926)" fill="#707070"/>
      <path id="Path_85" data-name="Path 85" d="M443.384,156.489a.525.525,0,0,0,.152-.02.613.613,0,0,0,.442-.741h0a.61.61,0,1,0-1.183.3h0A.6.6,0,0,0,443.384,156.489Z" transform="translate(-420.305 -147.394)" fill="#707070"/>
      <path id="Path_86" data-name="Path 86" d="M372.454,46.72a.6.6,0,0,0,.381.137.591.591,0,0,0,.472-.228.61.61,0,1,0-.853.091Z" transform="translate(-353.334 -43.325)" fill="#707070"/>
      <path id="Path_87" data-name="Path 87" d="M206.745,4.345a.606.606,0,1,0-.431-.178A.594.594,0,0,0,206.745,4.345Z" transform="translate(-195.674 -2.974)" fill="#707070"/>
      <path id="Path_88" data-name="Path 88" d="M17.3,80.194a2.1,2.1,0,0,0-3.121-.005l-.122.117c-.447.442-.9.893-1.35,1.355-.086-.046-.167-.086-.254-.127a6.154,6.154,0,0,1-.579-.31,15.771,15.771,0,0,1-3.811-3.471A8.907,8.907,0,0,1,6.8,75.773c.4-.381.782-.777,1.162-1.157l.294-.294a2.114,2.114,0,0,0-.005-3.177l-.868-.868L7.005,69.9l-.4-.4c-.289-.289-.584-.589-.883-.883a2.216,2.216,0,0,0-1.563-.69,2.2,2.2,0,0,0-1.558.69c-.218.213-.431.431-.645.645-.3.31-.619.629-.939.929a3.2,3.2,0,0,0-1,2.137,8.066,8.066,0,0,0,.6,3.431,19.916,19.916,0,0,0,3.522,5.877,21.921,21.921,0,0,0,7.212,5.644,10.71,10.71,0,0,0,4.116,1.193c.1.005.188.01.279.01A3.4,3.4,0,0,0,18.4,87.345c.289-.32.594-.619.924-.939.162-.162.335-.325.5-.492a2.108,2.108,0,0,0,.01-3.162C18.993,81.874,18.135,81.016,17.3,80.194Zm1.675,4.847c-.157.162-.325.32-.487.477-.325.32-.665.645-.98,1a2.255,2.255,0,0,1-1.954.726,9.482,9.482,0,0,1-3.649-1.071A20.655,20.655,0,0,1,5.1,80.844a18.6,18.6,0,0,1-3.314-5.517,6.836,6.836,0,0,1-.533-2.913,1.942,1.942,0,0,1,.624-1.345c.33-.315.65-.639.964-.954.208-.208.421-.426.629-.629a1.062,1.062,0,0,1,.705-.34,1.064,1.064,0,0,1,.711.34c.294.289.589.584.873.873l.406.406c.127.127.254.254.381.376.284.284.579.574.863.863a.914.914,0,0,1,.005,1.462l-.294.3c-.411.416-.837.842-1.264,1.254a.924.924,0,0,0-.218,1.091,9.763,9.763,0,0,0,1.507,2.421,16.9,16.9,0,0,0,4.111,3.735,7.629,7.629,0,0,0,.69.37c.132.066.259.127.381.193a.97.97,0,0,0,.472.127h0a.937.937,0,0,0,.69-.32c.477-.492.969-.98,1.452-1.457l.122-.117a1.039,1.039,0,0,1,.7-.34,1.074,1.074,0,0,1,.705.34c.827.822,1.685,1.675,2.543,2.538A.917.917,0,0,1,18.978,85.041Z" transform="translate(0 -64.485)" fill="#707070"/>
    </g>
  </g>
</svg>
