<svg xmlns="http://www.w3.org/2000/svg" width="45.187" height="65" viewBox="0 0 45.187 65">
  <g id="Group_947" data-name="Group 947" transform="translate(-384 -307)">
    <g id="spoon" transform="translate(399 323)">
      <g id="Group_943" data-name="Group 943" transform="translate(0)">
        <g id="Group_942" data-name="Group 942">
          <path id="Path_1530" data-name="Path 1530" d="M71.5,4.5c0-2.486-1.679-4.5-3.75-4.5S64,2.015,64,4.5a4.391,4.391,0,0,0,2.93,4.385L65.515,21.5a2.019,2.019,0,0,0-.015.253,2.25,2.25,0,1,0,4.5,0,2.034,2.034,0,0,0-.01-.215L68.787,8.8A4.441,4.441,0,0,0,71.5,4.5Z" transform="translate(-64)" fill="#fff"/>
        </g>
      </g>
      <g id="Group_945" data-name="Group 945" transform="translate(10.5)">
        <g id="Group_944" data-name="Group 944">
          <path id="Path_1531" data-name="Path 1531" d="M294.75,0a.75.75,0,0,0-.75.75V4.5a.75.75,0,0,1-1.5,0V.75a.75.75,0,1,0-1.5,0V4.5a.75.75,0,0,1-1.5,0V.75a.75.75,0,1,0-1.5,0v4.5A3.751,3.751,0,0,0,290.927,8.9L289.513,21.5a2.357,2.357,0,0,0-.013.253,2.25,2.25,0,1,0,4.5,0,2.032,2.032,0,0,0-.01-.214l-1.2-12.7A3.744,3.744,0,0,0,295.5,5.25V.75A.75.75,0,0,0,294.75,0Z" transform="translate(-288)" fill="#fff"/>
        </g>
      </g>
    </g>
    <path id="gps" d="M16.344,0A22.619,22.619,0,0,0-6.25,22.594C-6.25,38.252,16.366,65,16.366,65S38.937,37.482,38.937,22.594A22.619,22.619,0,0,0,16.344,0Zm6.817,29.209a9.641,9.641,0,1,1,0-13.634A9.612,9.612,0,0,1,23.161,29.209Zm0,0" transform="translate(390.25 307)" fill="#fe7235"/>
  </g>
</svg>
