<svg xmlns="http://www.w3.org/2000/svg" width="40" height="40" viewBox="0 0 40 40">
  <g id="Group_2159" data-name="Group 2159" transform="translate(0)">
    <path id="Exclusion_4" data-name="Exclusion 4" d="M23642.092,16620.182v0l-19.09-19.09,19.09-19.09,19.092,19.09-19.092,19.09Zm-1.127-23.658a3.889,3.889,0,0,0-3.885,3.885v7.256a1.381,1.381,0,0,0,2.762,0v-7.256a1.124,1.124,0,0,1,1.123-1.123h3.924l-1.145,1.141a1.387,1.387,0,0,0-.006,1.953,1.389,1.389,0,0,0,1.959,0l3.5-3.5a1.39,1.39,0,0,0,.41-.979,1.37,1.37,0,0,0-.41-.975l-3.486-3.492a1.382,1.382,0,0,0-1.953,1.955l1.133,1.133Z" transform="translate(-23622.422 -16581.594)" fill="#707070"/>
    <path id="Path_38" data-name="Path 38" d="M39.6,19.023,20.977.4a1.381,1.381,0,0,0-1.953,0L.4,19.023a1.381,1.381,0,0,0,0,1.953L19.024,39.6a1.381,1.381,0,0,0,1.953,0L39.6,20.977A1.381,1.381,0,0,0,39.6,19.023ZM20,36.665,3.335,20,20,3.334,36.666,20Z" fill="#707070"/>
  </g>
</svg>
