<svg xmlns="http://www.w3.org/2000/svg" width="33.5" height="35.733" viewBox="0 0 33.5 35.733">
  <g id="share" transform="translate(-16)">
    <g id="Group_82" data-name="Group 82" transform="translate(16)">
      <path id="Path_48" data-name="Path 48" d="M43.219,23.171a6.258,6.258,0,0,0-5.037,2.565l-9.9-5.069a5.926,5.926,0,0,0-.185-4.1l10.36-6.234a6.247,6.247,0,1,0-1.521-4.05,6.223,6.223,0,0,0,.437,2.258L26.983,14.792a6.271,6.271,0,1,0,.4,7.764l9.867,5.053a6.2,6.2,0,0,0-.308,1.843,6.281,6.281,0,1,0,6.281-6.281Z" transform="translate(-16)" fill="#707070"/>
    </g>
  </g>
</svg>
