<svg xmlns="http://www.w3.org/2000/svg" width="360" height="512" viewBox="0 0 360 512">
  <g id="Spa" transform="translate(-76)">
    <path id="Path_1749" data-name="Path 1749" d="M256,0C156.7,0,76,80.7,76,180a177.5,177.5,0,0,0,27,94.5L243.8,504.915a14.214,14.214,0,0,0,10.2,6.9,14.933,14.933,0,0,0,15.3-7.2L410.5,272.1A177.525,177.525,0,0,0,436,180C436,80.7,355.3,0,256,0Zm0,270V90s90,40.5,90,90C346,228.9,256,270,256,270Z" fill="#c100f1"/>
    <path id="Path_1750" data-name="Path 1750" d="M256,0V511.991a14.854,14.854,0,0,0,13.3-7.375L410.5,272.1A177.517,177.517,0,0,0,436,180C436,80.7,355.3,0,256,0Z" fill="#9500bb"/>
    <g id="eye-makeup" transform="translate(163.409 107)">
      <path id="Path_1757" data-name="Path 1757" d="M233.057,91.154h-11.7V56.4h8.867a5.32,5.32,0,0,0,0-10.641h-8.867V33.7h8.867a5.32,5.32,0,0,0,0-10.641h-8.867V10.641h8.867a5.32,5.32,0,0,0,0-10.641H201.844a5.32,5.32,0,1,0,0,10.641h8.867V23.055h-8.867a5.32,5.32,0,1,0,0,10.641h8.867V45.755h-8.867a5.32,5.32,0,1,0,0,10.641h8.867V91.154h-11.7a5.32,5.32,0,0,0-5.316,5.1c-.755,18.1-.1,46.086,3.706,63.738,2.2,10.222,5.333,16.892,9.574,20.391a5.322,5.322,0,0,0,3.386,1.217h11.35a5.322,5.322,0,0,0,3.386-1.217c4.241-3.5,7.373-10.169,9.574-20.391,3.8-17.652,4.461-45.64,3.706-63.738A5.32,5.32,0,0,0,233.057,91.154Z" transform="translate(-123.407)" fill="#fff"/>
      <path id="Path_1758" data-name="Path 1758" d="M370.179,335v57.459a5.32,5.32,0,0,0,5.32,5.32h28.375a5.32,5.32,0,0,0,5.32-5.32V335Z" transform="translate(-237.475 -216.18)" fill="#fff"/>
      <path id="Path_1759" data-name="Path 1759" d="M369.637,121.015c-19.557.567-33.358,19.667-27.933,38.651l7.6,26.6h42.482l7.6-26.6C404.9,140.349,390.422,120.45,369.637,121.015Z" transform="translate(-218.332 -78.085)" fill="#fff"/>
      <path id="Path_1760" data-name="Path 1760" d="M67.52,147.75V129.661a5.319,5.319,0,0,0-2.941-4.758l-22.7-11.35a5.323,5.323,0,0,0-7.7,4.758V147.75Z" transform="translate(-20.65 -72.911)" fill="#fff"/>
      <path id="Path_1761" data-name="Path 1761" d="M62.87,246.32a5.32,5.32,0,0,0-5.32-5.32H23.5a5.32,5.32,0,0,0-5.32,5.32v12.414H62.87Z" transform="translate(-10.325 -155.521)" fill="#fff"/>
      <path id="Path_1762" data-name="Path 1762" d="M52.9,321H7.5a5.32,5.32,0,0,0-5.32,5.32v57.1a5.32,5.32,0,0,0,5.32,5.32H52.9a5.32,5.32,0,0,0,5.32-5.32v-57.1A5.32,5.32,0,0,0,52.9,321Z" transform="translate(0 -207.146)" fill="#fff"/>
    </g>
  </g>
</svg>
