<svg xmlns="http://www.w3.org/2000/svg" width="27.599" height="23" viewBox="0 0 27.599 23">
  <g id="shop_3_" data-name="shop (3)" transform="translate(0 -42.666)">
    <g id="Group_1036" data-name="Group 1036" transform="translate(14.375 42.666)">
      <g id="Group_1035" data-name="Group 1035" transform="translate(0 0)">
        <path id="Path_1600" data-name="Path 1600" d="M269.216,42.667h-2.549v4.6h5.309Z" transform="translate(-266.667 -42.667)" fill="#707070"/>
      </g>
    </g>
    <g id="Group_1038" data-name="Group 1038" transform="translate(18.265 42.666)">
      <g id="Group_1037" data-name="Group 1037" transform="translate(0 0)">
        <path id="Path_1601" data-name="Path 1601" d="M344.607,42.9a.575.575,0,0,0-.46-.23h-5.309l2.76,4.6h6.287Z" transform="translate(-338.838 -42.666)" fill="#707070"/>
      </g>
    </g>
    <g id="Group_1040" data-name="Group 1040" transform="translate(0.287 42.666)">
      <g id="Group_1039" data-name="Group 1039" transform="translate(0 0)">
        <path id="Path_1602" data-name="Path 1602" d="M9.07,42.667a.575.575,0,0,0-.46.23l-3.277,4.37H11.62l2.76-4.6Z" transform="translate(-5.333 -42.667)" fill="#707070"/>
      </g>
    </g>
    <g id="Group_1042" data-name="Group 1042" transform="translate(7.915 42.666)">
      <g id="Group_1041" data-name="Group 1041" transform="translate(0 0)">
        <path id="Path_1603" data-name="Path 1603" d="M149.6,42.667l-2.76,4.6h5.309v-4.6Z" transform="translate(-146.837 -42.667)" fill="#707070"/>
      </g>
    </g>
    <g id="Group_1044" data-name="Group 1044" transform="translate(21.275 48.416)">
      <g id="Group_1043" data-name="Group 1043" transform="translate(0 0)">
        <path id="Path_1604" data-name="Path 1604" d="M394.667,149.333v4.262a4.595,4.595,0,0,0,6.325-4.262Z" transform="translate(-394.667 -149.333)" fill="#707070"/>
      </g>
    </g>
    <g id="Group_1046" data-name="Group 1046" transform="translate(0 48.416)">
      <g id="Group_1045" data-name="Group 1045" transform="translate(0 0)">
        <path id="Path_1605" data-name="Path 1605" d="M0,149.333a4.595,4.595,0,0,0,6.325,4.262v-4.262Z" transform="translate(0 -149.333)" fill="#707070"/>
      </g>
    </g>
    <g id="Group_1048" data-name="Group 1048" transform="translate(14.375 48.416)">
      <g id="Group_1047" data-name="Group 1047" transform="translate(0 0)">
        <path id="Path_1606" data-name="Path 1606" d="M266.667,149.333v4.725a4.568,4.568,0,0,0,5.75.013v-4.738h-5.75Z" transform="translate(-266.667 -149.333)" fill="#707070"/>
      </g>
    </g>
    <g id="Group_1050" data-name="Group 1050" transform="translate(7.475 48.416)">
      <g id="Group_1049" data-name="Group 1049" transform="translate(0 0)">
        <path id="Path_1607" data-name="Path 1607" d="M138.667,149.333v4.739a4.554,4.554,0,0,0,5.75-.023v-4.716Z" transform="translate(-138.667 -149.333)" fill="#707070"/>
      </g>
    </g>
    <g id="Group_1052" data-name="Group 1052" transform="translate(3.45 53.828)">
      <g id="Group_1051" data-name="Group 1051" transform="translate(0 0)">
        <path id="Path_1608" data-name="Path 1608" d="M83.55,250.065a5.72,5.72,0,0,1-1.877-.338l-.277.223a5.762,5.762,0,0,1-3.6,1.265h4.025a.575.575,0,0,1,.575.575v8.625H75.5V251.79a.575.575,0,0,1,.575-.575H77.8a5.663,5.663,0,0,1-3.457-1.184,5.76,5.76,0,0,1-3.443,1.184h2.875a.575.575,0,0,1,.575.575v4.6a.575.575,0,0,1-.575.575h-6.9a.575.575,0,0,1-.575-.575v-4.6a.575.575,0,0,1,.575-.575H70.9a5.754,5.754,0,0,1-3.595-1.265l-.278-.223a5.512,5.512,0,0,1-3.027.222V260.99a.575.575,0,0,0,.575.575h19.55a.575.575,0,0,0,.575-.575V249.949A5.745,5.745,0,0,1,83.55,250.065Z" transform="translate(-64 -249.727)" fill="#707070"/>
      </g>
    </g>
  </g>
</svg>
