<svg xmlns="http://www.w3.org/2000/svg" width="360" height="512" viewBox="0 0 360 512">
  <g id="Supermarket" transform="translate(-76)">
    <path id="Path_1749" data-name="Path 1749" d="M256,0C156.7,0,76,80.7,76,180a177.5,177.5,0,0,0,27,94.5L243.8,504.915a14.214,14.214,0,0,0,10.2,6.9,14.933,14.933,0,0,0,15.3-7.2L410.5,272.1A177.525,177.525,0,0,0,436,180C436,80.7,355.3,0,256,0Zm0,270V90s90,40.5,90,90C346,228.9,256,270,256,270Z" fill="#44e11d"/>
    <path id="Path_1750" data-name="Path 1750" d="M256,0V511.991a14.854,14.854,0,0,0,13.3-7.375L410.5,272.1A177.517,177.517,0,0,0,436,180C436,80.7,355.3,0,256,0Z" fill="#31c110"/>
    <g id="shopping-cart_1_" data-name="shopping-cart (1)" transform="translate(166 112)">
      <g id="Group_1149" data-name="Group 1149">
        <g id="Group_1148" data-name="Group 1148">
          <path id="Path_1751" data-name="Path 1751" d="M166.824,16.364H32.727a4.008,4.008,0,0,0-1.151.266L28.28,5.8A8.18,8.18,0,0,0,20.454,0H4.091A4.091,4.091,0,0,0,0,4.091v8.182a4.091,4.091,0,0,0,4.091,4.091h10.3l25.56,84L30.408,111.5c-3.773,4.4-5.472,10.467-3.736,16a16.261,16.261,0,0,0,15.663,11.6h117.21A4.091,4.091,0,0,0,163.636,135v-8.182a4.091,4.091,0,0,0-4.091-4.091H42.335L55.3,107.6a8.118,8.118,0,0,0,.813-1.235h79.275a16.369,16.369,0,0,0,14.811-9.4L178.749,36.3A13.284,13.284,0,0,0,180,30.7V29.539A13.175,13.175,0,0,0,166.824,16.364Z" fill="#fff"/>
          <circle id="Ellipse_93" data-name="Ellipse 93" cx="16.364" cy="16.364" r="16.364" transform="translate(32.727 147.273)" fill="#fff"/>
          <circle id="Ellipse_94" data-name="Ellipse 94" cx="16.364" cy="16.364" r="16.364" transform="translate(130.909 147.273)" fill="#fff"/>
        </g>
      </g>
    </g>
  </g>
</svg>
