<svg xmlns="http://www.w3.org/2000/svg" width="65" height="65" viewBox="0 0 65 65">
  <g id="youtube" opacity="0.3">
    <path id="Path_1815" data-name="Path 1815" d="M224.113,220.217l10.572-6.089-10.572-6.089Zm0,0" transform="translate(-195.661 -181.628)"/>
    <path id="Path_1816" data-name="Path 1816" d="M32.5,0A32.5,32.5,0,1,0,65,32.5,32.5,32.5,0,0,0,32.5,0ZM52.808,32.533s0,6.591-.836,9.769a5.089,5.089,0,0,1-3.58,3.579c-3.178.837-15.891.837-15.891.837s-12.68,0-15.891-.87a5.09,5.09,0,0,1-3.58-3.58c-.837-3.145-.837-9.769-.837-9.769s0-6.591.837-9.769a5.192,5.192,0,0,1,3.58-3.613c3.178-.837,15.891-.837,15.891-.837s12.713,0,15.891.87a5.09,5.09,0,0,1,3.58,3.58c.87,3.178.836,9.8.836,9.8Zm0,0"/>
  </g>
</svg>
