<svg xmlns="http://www.w3.org/2000/svg" width="65.054" height="65.059" viewBox="0 0 65.054 65.059">
  <g id="wmtp-zalo" transform="translate(-6.551 -6.216)">
    <g id="_25aae1ff" data-name="#25aae1ff" transform="translate(6.551 6.216)">
      <path id="Path_1724" data-name="Path 1724" d="M35.939,6.366A32.5,32.5,0,0,1,69.221,26.494a33.731,33.731,0,0,1,1.788,5.956A32.888,32.888,0,0,1,69.886,49.2,32.536,32.536,0,1,1,35.939,6.366M22.7,20.685a4.457,4.457,0,0,0-3.966,3.365,14.882,14.882,0,0,0-.246,3.775q.01,9.22,0,18.439c-.062,1.862-.024,3.726-.035,5.589a14.655,14.655,0,0,0,.288,4.024,4.5,4.5,0,0,0,2.708,3.055,9.335,9.335,0,0,0,3.34.345q14.138,0,28.276,0c.666,0,1.333-.033,2-.066a4.457,4.457,0,0,0,3.75-2.831,5.514,5.514,0,0,0,.311-2.275q-.006-14.47,0-28.942a4.493,4.493,0,0,0-2.018-3.77A4.813,4.813,0,0,0,54,20.672c-7.742-.031-15.486.042-23.228-.036-.973.077-1.946-.045-2.919.04C26.132,20.651,24.417,20.64,22.7,20.685Z" transform="translate(-6.551 -6.216)" fill="#25aae1"/>
      <path id="Path_1725" data-name="Path 1725" d="M141.262,122.992c.327-.2.628-.528,1.039-.5q11.221.006,22.443,0a3.54,3.54,0,0,1,3.324,2.534,8.141,8.141,0,0,1,.151,2.047q-.006,11.275,0,22.548a20.19,20.19,0,0,1-8.978,5.019,21.642,21.642,0,0,1-11.751-.094c-.928-.192-1.813-.792-2.791-.547a30.872,30.872,0,0,1-5.97,1.374,12.334,12.334,0,0,1-2.916-.17c-.041-.054-.123-.162-.163-.216a10.768,10.768,0,0,0,3.063-2.576,2.758,2.758,0,0,0,.692-1.72,1.939,1.939,0,0,0-.735-1.261,16.7,16.7,0,0,1-3.426-19.606,18.407,18.407,0,0,1,6.022-6.83m14.9,9.076a1.086,1.086,0,0,0-.753,1.1c0,2.7,0,5.406,0,8.109a1.291,1.291,0,0,0,.226.857,1.135,1.135,0,0,0,1.72.1,1.453,1.453,0,0,0,.334-1.1q-.006-3.849,0-7.7a1.515,1.515,0,0,0-.323-1.118,1.291,1.291,0,0,0-1.2-.252M139.579,133.1a1,1,0,0,0-.2,1.155,1.319,1.319,0,0,0,1.211.572c1.072.013,2.145-.009,3.219.011-1.415,1.881-2.912,3.7-4.348,5.565a1.246,1.246,0,0,0,.338,1.939,5.977,5.977,0,0,0,1.853.115c1.554-.021,3.11.019,4.663-.017a1.036,1.036,0,0,0,.733-1.5,1.165,1.165,0,0,0-1.14-.56c-1.228-.007-2.456.008-3.683,0q1.67-2.112,3.336-4.227a10.294,10.294,0,0,0,1.248-1.8,1.284,1.284,0,0,0,.073-.853,1.191,1.191,0,0,0-1.137-.677c-1.629-.024-3.259,0-4.887-.012a1.859,1.859,0,0,0-1.272.288m7.458,4.85a5.052,5.052,0,0,0,.609,3.3,3.144,3.144,0,0,0,4.646.729,4.238,4.238,0,0,0,.538.462,1.14,1.14,0,0,0,1.68-.891c.011-1.821.023-3.645-.005-5.465a1.175,1.175,0,0,0-2.148-.384,3.466,3.466,0,0,0-2.075-.741,3.7,3.7,0,0,0-3.245,2.984m14.178-2.842a4.036,4.036,0,0,0-1.585,6.764,3.912,3.912,0,0,0,5.747-.895,4.2,4.2,0,0,0-.5-4.871A4.039,4.039,0,0,0,161.215,135.1Z" transform="translate(-116.636 -107.056)" fill="#25aae1"/>
      <path id="Path_1726" data-name="Path 1726" d="M253.834,232.367a1.45,1.45,0,0,1,1.652.715,2.328,2.328,0,0,1-.011,2.091,1.473,1.473,0,0,1-1.712.688C252.273,235.373,252.29,232.758,253.834,232.367Z" transform="translate(-219.994 -202.309)" fill="#25aae1"/>
      <path id="Path_1727" data-name="Path 1727" d="M339.158,232.346a1.445,1.445,0,0,1,1.629.62c.587.944.338,2.556-.852,2.883a1.534,1.534,0,0,1-1.873-1.6A1.668,1.668,0,0,1,339.158,232.346Z" transform="translate(-294.047 -202.289)" fill="#25aae1"/>
    </g>
    <g id="_ffffffff" data-name="#ffffffff" transform="translate(18.456 20.636)">
      <path id="Path_1728" data-name="Path 1728" d="M100.483,114.909c1.716-.045,3.431-.035,5.149-.009.973-.085,1.946.037,2.919-.04,7.742.078,15.486.005,23.228.036a4.813,4.813,0,0,1,3.113.722,4.493,4.493,0,0,1,2.018,3.77q.006,14.47,0,28.942a5.514,5.514,0,0,1-.311,2.275,4.457,4.457,0,0,1-3.75,2.831c-.666.033-1.333.069-2,.066q-14.138,0-28.276,0a9.335,9.335,0,0,1-3.34-.345,4.5,4.5,0,0,1-2.708-3.055,14.655,14.655,0,0,1-.288-4.024c.011-1.864-.028-3.727.035-5.589q-.006-9.218,0-18.439a14.882,14.882,0,0,1,.246-3.775,4.457,4.457,0,0,1,3.966-3.365m8.476,1.467a18.407,18.407,0,0,0-6.022,6.83,16.7,16.7,0,0,0,3.426,19.606,1.939,1.939,0,0,1,.735,1.261,2.758,2.758,0,0,1-.692,1.72,10.767,10.767,0,0,1-3.063,2.576c.04.054.122.162.163.216a12.334,12.334,0,0,0,2.916.17,30.874,30.874,0,0,0,5.97-1.374c.978-.246,1.864.354,2.791.547a21.642,21.642,0,0,0,11.751.094A20.19,20.19,0,0,0,135.913,143q.014-11.273,0-22.548a8.14,8.14,0,0,0-.151-2.047,3.54,3.54,0,0,0-3.324-2.534q-11.223,0-22.443,0C109.587,115.848,109.285,116.179,108.959,116.376Z" transform="translate(-96.238 -114.86)" fill="#fff"/>
      <path id="Path_1729" data-name="Path 1729" d="M299.414,194.369a1.291,1.291,0,0,1,1.2.252,1.515,1.515,0,0,1,.323,1.118q0,3.849,0,7.7a1.453,1.453,0,0,1-.335,1.1,1.135,1.135,0,0,1-1.72-.1,1.291,1.291,0,0,1-.226-.857c.007-2.7,0-5.4,0-8.109A1.086,1.086,0,0,1,299.414,194.369Z" transform="translate(-271.79 -183.777)" fill="#fff"/>
      <path id="Path_1730" data-name="Path 1730" d="M176.538,200.528a1.859,1.859,0,0,1,1.272-.288c1.629.011,3.259-.012,4.887.012a1.191,1.191,0,0,1,1.137.677,1.284,1.284,0,0,1-.073.853,10.293,10.293,0,0,1-1.248,1.8q-1.666,2.114-3.336,4.227c1.228.012,2.456,0,3.683,0a1.165,1.165,0,0,1,1.14.56,1.036,1.036,0,0,1-.733,1.5c-1.553.036-3.109,0-4.663.017a5.977,5.977,0,0,1-1.853-.115,1.246,1.246,0,0,1-.338-1.939c1.436-1.866,2.933-3.685,4.348-5.565-1.074-.02-2.146,0-3.219-.011a1.319,1.319,0,0,1-1.21-.572A1,1,0,0,1,176.538,200.528Z" transform="translate(-165.5 -188.907)" fill="#fff"/>
      <path id="Path_1731" data-name="Path 1731" d="M235.306,219.417a3.7,3.7,0,0,1,3.245-2.984,3.466,3.466,0,0,1,2.075.741,1.175,1.175,0,0,1,2.148.384c.028,1.82.016,3.643.005,5.465a1.14,1.14,0,0,1-1.68.891,4.234,4.234,0,0,1-.538-.462,3.144,3.144,0,0,1-4.646-.729,5.052,5.052,0,0,1-.609-3.305m3.439-.834c-1.544.392-1.561,3.006-.07,3.493a1.473,1.473,0,0,0,1.712-.688,2.328,2.328,0,0,0,.011-2.091A1.45,1.45,0,0,0,238.745,218.583Z" transform="translate(-216.81 -202.946)" fill="#fff"/>
      <path id="Path_1732" data-name="Path 1732" d="M323.886,216.951a4.039,4.039,0,0,1,3.662,1,4.2,4.2,0,0,1,.5,4.871,3.912,3.912,0,0,1-5.747.895,4.036,4.036,0,0,1,1.585-6.764m.532,2.008a1.668,1.668,0,0,0-1.1,1.9,1.534,1.534,0,0,0,1.873,1.6c1.191-.327,1.439-1.939.852-2.883A1.445,1.445,0,0,0,324.418,218.96Z" transform="translate(-291.212 -203.322)" fill="#fff"/>
    </g>
  </g>
</svg>
