<svg id="analytics_1_" data-name="analytics (1)" xmlns="http://www.w3.org/2000/svg" width="25" height="25" viewBox="0 0 25 25">
  <g id="Group_261" data-name="Group 261" transform="translate(0 8)">
    <g id="Group_260" data-name="Group 260">
      <path id="Path_151" data-name="Path 151" d="M24.479,186.6h-.521V171.2a.526.526,0,0,0-.521-.531H20.312a.526.526,0,0,0-.521.531V186.6H17.708v-9.031a.526.526,0,0,0-.521-.531H14.062a.526.526,0,0,0-.521.531V186.6H11.458V175.447a.526.526,0,0,0-.521-.531H7.812a.526.526,0,0,0-.521.531V186.6H5.208V180.76a.526.526,0,0,0-.521-.531H1.563a.526.526,0,0,0-.521.531V186.6H.521a.531.531,0,0,0,0,1.063H24.479a.531.531,0,0,0,0-1.062Z" transform="translate(0 -170.666)" fill="#707070"/>
    </g>
  </g>
  <g id="Group_263" data-name="Group 263" transform="translate(1.062)">
    <g id="Group_262" data-name="Group 262">
      <path id="Path_152" data-name="Path 152" d="M42.128,0a2.1,2.1,0,0,0-2.08,2.125A2.145,2.145,0,0,0,40.343,3.2l-3.4,3.478a2.032,2.032,0,0,0-1.05-.3,2.053,2.053,0,0,0-1.61.8l-2.555-.745c0-.017.005-.033.005-.051a2.08,2.08,0,1,0-4.159,0,2.138,2.138,0,0,0,.184.865L24.506,9.889a2.019,2.019,0,0,0-1.094-.326,2.126,2.126,0,1,0,2.08,2.125,2.131,2.131,0,0,0-.269-1.024l3.185-2.6a2.032,2.032,0,0,0,1.244.432,2.066,2.066,0,0,0,1.785-1.053l2.409.7a2.056,2.056,0,0,0-.035.351,2.08,2.08,0,1,0,4.159,0,2.145,2.145,0,0,0-.294-1.073l3.4-3.479a2.016,2.016,0,0,0,1.049.3,2.1,2.1,0,0,0,2.08-2.125A2.1,2.1,0,0,0,42.128,0Z" transform="translate(-21.333)" fill="#707070"/>
    </g>
  </g>
</svg>
