<svg xmlns="http://www.w3.org/2000/svg" width="24.1" height="24.059" viewBox="0 0 24.1 24.059">
  <path id="filter" d="M3.574,7.032H7.642a3.443,3.443,0,0,0,6.782,0h12.1a.574.574,0,0,0,0-1.148h-12.1a3.443,3.443,0,0,0-6.782,0H3.574a.574.574,0,1,0,0,1.148Zm7.46-2.869a2.3,2.3,0,1,1-2.3,2.3A2.3,2.3,0,0,1,11.033,4.163ZM26.526,14.491H22.458a3.443,3.443,0,0,0-6.782,0H3.574a.574.574,0,1,0,0,1.148h12.1a3.443,3.443,0,0,0,6.782,0h4.068a.574.574,0,0,0,0-1.148Zm-7.46,2.869a2.3,2.3,0,1,1,2.3-2.3A2.3,2.3,0,0,1,19.067,17.36Zm7.46,5.738h-12.1a3.443,3.443,0,0,0-6.782,0H3.574a.574.574,0,1,0,0,1.148H7.642a3.443,3.443,0,0,0,6.782,0h12.1a.574.574,0,0,0,0-1.148ZM11.033,25.967a2.3,2.3,0,1,1,2.3-2.3A2.3,2.3,0,0,1,11.033,25.967Z" transform="translate(-3 -3.035)" fill="#4aa9c5"/>
</svg>
