<svg xmlns="http://www.w3.org/2000/svg" width="72.398" height="77.497" viewBox="0 0 72.398 77.497">
  <path id="Icon_awesome-gift" data-name="Icon awesome-gift" d="M4.525,74.211c0,3.062,2.022,5.535,4.525,5.535H31.674V52.069H4.525Zm36.2,5.535H63.349c2.5,0,4.525-2.474,4.525-5.535V52.069H40.724ZM67.874,24.392H61.92a17.82,17.82,0,0,0,1.428-6.919c0-8.39-5.585-15.223-12.443-15.223-5.882,0-9.686,3.685-14.565,11.815C31.462,5.935,27.658,2.25,21.776,2.25c-6.858,0-12.443,6.833-12.443,15.223a17.568,17.568,0,0,0,1.428,6.919H4.525C2.022,24.392,0,26.866,0,29.927V43.766a2.561,2.561,0,0,0,2.262,2.768H70.136A2.561,2.561,0,0,0,72.4,43.766V29.927C72.4,26.866,70.376,24.392,67.874,24.392Zm-46.112,0c-3.125,0-5.656-3.1-5.656-6.919s2.531-6.919,5.656-6.919c2.814,0,4.893.571,12.175,13.839H21.762Zm29.143,0H38.73C46,11.159,48.021,10.553,50.905,10.553c3.125,0,5.656,3.1,5.656,6.919S54.03,24.392,50.905,24.392Z" transform="translate(0 -2.25)" fill="#cecece"/>
</svg>
