<svg xmlns="http://www.w3.org/2000/svg" width="24" height="24.353" viewBox="0 0 24 24.353">
  <g id="Group_15" data-name="Group 15" transform="translate(0)">
    <path id="Path_14" data-name="Path 14" d="M8.965,0H3.318a.706.706,0,0,0-.706.706V6.353a.706.706,0,0,0,.706.706H8.965a.706.706,0,0,0,.706-.706V.706A.706.706,0,0,0,8.965,0Z" transform="translate(-2.612)" fill="#707070"/>
    <path id="Path_15" data-name="Path 15" d="M134.353,0h-5.647A.706.706,0,0,0,128,.706V6.353a.706.706,0,0,0,.706.706h5.647a.706.706,0,0,0,.706-.706V.706A.706.706,0,0,0,134.353,0Z" transform="translate(-119.529)" fill="#707070"/>
    <path id="Path_16" data-name="Path 16" d="M8.965,125.388H3.318a.706.706,0,0,0-.706.706v5.647a.706.706,0,0,0,.706.706H8.965a.706.706,0,0,0,.706-.706v-5.647A.706.706,0,0,0,8.965,125.388Z" transform="translate(-2.612 -116.917)" fill="#707070"/>
    <path id="Path_17" data-name="Path 17" d="M134.353,125.388h-5.647a.706.706,0,0,0-.706.706v5.647a.706.706,0,0,0,.706.706h5.647a.706.706,0,0,0,.706-.706v-5.647A.706.706,0,0,0,134.353,125.388Z" transform="translate(-119.529 -116.917)" fill="#707070"/>
    <path id="Path_18" data-name="Path 18" d="M259.741,0h-5.647a.706.706,0,0,0-.706.706V6.353a.706.706,0,0,0,.706.706h5.647a.706.706,0,0,0,.706-.706V.706A.706.706,0,0,0,259.741,0Z" transform="translate(-236.447)" fill="#707070"/>
    <path id="Path_19" data-name="Path 19" d="M259.741,125.388h-5.647a.706.706,0,0,0-.706.706v5.647a.706.706,0,0,0,.706.706h5.647a.706.706,0,0,0,.706-.706v-5.647A.706.706,0,0,0,259.741,125.388Z" transform="translate(-236.447 -116.917)" fill="#707070"/>
    <path id="Path_20" data-name="Path 20" d="M8.965,256H3.318a.706.706,0,0,0-.706.706v5.647a.706.706,0,0,0,.706.706H8.965a.706.706,0,0,0,.706-.706v-5.647A.706.706,0,0,0,8.965,256Z" transform="translate(-2.612 -238.706)" fill="#707070"/>
    <path id="Path_21" data-name="Path 21" d="M134.353,256h-5.647a.706.706,0,0,0-.706.706v5.647a.706.706,0,0,0,.706.706h5.647a.706.706,0,0,0,.706-.706v-5.647A.706.706,0,0,0,134.353,256Z" transform="translate(-119.529 -238.706)" fill="#707070"/>
    <path id="Path_22" data-name="Path 22" d="M259.741,256h-5.647a.706.706,0,0,0-.706.706v5.647a.706.706,0,0,0,.706.706h5.647a.706.706,0,0,0,.706-.706v-5.647A.706.706,0,0,0,259.741,256Z" transform="translate(-236.447 -238.706)" fill="#707070"/>
  </g>
</svg>
