<svg id="pop-up_1_" data-name="pop-up (1)" xmlns="http://www.w3.org/2000/svg" width="31.017" height="28.334" viewBox="0 0 31.017 28.334">
  <g id="Group_274" data-name="Group 274" transform="translate(8.667 2.682)">
    <g id="Group_273" data-name="Group 273">
      <path id="Path_156" data-name="Path 156" d="M163.03,59.653H145.456a2.388,2.388,0,0,1-2.388-2.388v-10.6a2.388,2.388,0,0,1,2.388-2.388H163.03a2.388,2.388,0,0,1,2.388,2.388v10.6A2.388,2.388,0,0,1,163.03,59.653Z" transform="translate(-143.068 -44.28)" fill="#707070"/>
      <path id="Path_157" data-name="Path 157" d="M174.59,85.464a.739.739,0,0,1-.739-.739V74.388a.739.739,0,0,1,.739-.739h17.143a.739.739,0,0,1,.739.739V84.725a.739.739,0,0,1-.739.739Z" transform="translate(-171.986 -71.87)" fill="#fff"/>
      <g id="Group_272" data-name="Group 272" transform="translate(3.787 4.79)">
        <g id="Group_271" data-name="Group 271" transform="translate(0 0)">
          <g id="Group_270" data-name="Group 270">
            <path id="Path_159" data-name="Path 159" d="M208.513,123.713l-.005-.013a.577.577,0,0,0-.535-.358h0a.577.577,0,0,0-.535.36l0,.011-1.824,4.788a.469.469,0,0,0,.876.334l.339-.89h2.283l.336.889a.469.469,0,1,0,.877-.331Zm-1.331,3.292.79-2.073.782,2.073Z" transform="translate(-205.578 -123.342)" fill="#707070"/>
            <path id="Path_160" data-name="Path 160" d="M303.981,124.527h-1.335a.469.469,0,0,0-.469.47c.005,2.764,0,2.285.01,4.713a.469.469,0,0,0,.469.467h0c.04,0,.991,0,1.371-.01a2.545,2.545,0,0,0,2.325-2.815C306.353,125.662,305.4,124.527,303.981,124.527Zm.031,4.7c-.2,0-.582.006-.889.008-.006-1.9,0-1.165-.007-3.773h.865c1.058,0,1.434.975,1.434,1.888C305.416,128.244,304.977,129.212,304.012,129.229Z" transform="translate(-296.326 -124.455)" fill="#707070"/>
            <path id="Path_161" data-name="Path 161" d="M384.7,125.866c-.619-.228-1.194-.477-1.345-.544a.472.472,0,0,1-.185-.456c.107-.743,1.329-.669,1.947-.167a.469.469,0,0,0,.6-.719c-1.23-1.035-3.265-.723-3.477.753a1.4,1.4,0,0,0,.692,1.428c.028.012.693.308,1.441.585.519.191.783.489.725.815-.148.831-1.6.9-2.329.1a.469.469,0,1,0-.695.63c1.266,1.4,3.661,1.037,3.947-.565A1.7,1.7,0,0,0,384.7,125.866Z" transform="translate(-371.269 -123.37)" fill="#707070"/>
          </g>
        </g>
      </g>
    </g>
  </g>
  <g id="Group_280" data-name="Group 280" transform="translate(0)">
    <g id="Group_278" data-name="Group 278" transform="translate(0.776 12.468)">
      <g id="Group_275" data-name="Group 275">
        <path id="Path_162" data-name="Path 162" d="M30.063,206.2l-4.272,4.272a1.253,1.253,0,0,0-.033-1.8,1.273,1.273,0,0,0-1.76.053l-.854.854a1.253,1.253,0,0,0-.033-1.8,1.273,1.273,0,0,0-1.76.053l-.491.491h0l-.936-.749a1.086,1.086,0,0,0,.376-1.343,1.3,1.3,0,0,0-1.233.341L16.2,209.433a5.023,5.023,0,0,0-1.112,1.687l-1.029,2.537a4.023,4.023,0,0,1-.884,1.333l-.367.367,4.1,4.1-.2-.2a5.023,5.023,0,0,1,2.591-1.19l.921-.132a5.022,5.022,0,0,0,2.839-1.42l1.284-1.284a.755.755,0,0,0,.192-.74.755.755,0,0,1,.192-.74l6.468-6.468a1.691,1.691,0,0,0,.345-1.339A1.286,1.286,0,0,0,30.063,206.2Z" transform="translate(-12.804 -205.817)" fill="#707070"/>
      </g>
      <path id="Path_163" data-name="Path 163" d="M88.976,206.82a1.246,1.246,0,0,0-.646-.415,1.251,1.251,0,0,1-.323,1.209l-6.468,6.468a.755.755,0,0,0-.192.74.755.755,0,0,1-.192.74l-1.284,1.284a5.022,5.022,0,0,1-2.839,1.42l-.921.132a5.022,5.022,0,0,0-2.591,1.19l1.789,1.789a5.022,5.022,0,0,1,2.591-1.19l.921-.132a5.023,5.023,0,0,0,2.839-1.42l2.587-2.587a1.271,1.271,0,0,0,.043-1.768,1.245,1.245,0,0,0-.576-.345.122.122,0,0,1-.051-.2l5.211-5.211A1.272,1.272,0,0,0,88.976,206.82Z" transform="translate(-69.84 -206.369)" fill="#707070"/>
      <path id="Path_164" data-name="Path 164" d="M195.068,248.374a1.218,1.218,0,0,0-.537-.3,1.252,1.252,0,0,1-.326,1.206l-.817.817a1.253,1.253,0,0,0,0,1.772l1.7-1.7A1.253,1.253,0,0,0,195.068,248.374Z" transform="translate(-182.104 -245.517)" fill="#707070"/>
      <g id="Group_276" data-name="Group 276" transform="translate(8.764 1.663)">
        <path id="Path_165" data-name="Path 165" d="M159.047,235.362a1.253,1.253,0,0,0-.024-1.8,1.218,1.218,0,0,0-.537-.3,1.252,1.252,0,0,1-.326,1.206l-.324.324a1.253,1.253,0,0,0,0,1.772Z" transform="translate(-157.47 -233.27)" fill="#707070"/>
      </g>
      <g id="Group_277" data-name="Group 277" transform="translate(6.61 0.403)">
        <path id="Path_166" data-name="Path 166" d="M123.34,212.769a1.218,1.218,0,0,0-.537-.3,1.252,1.252,0,0,1-.326,1.206l-.193.193a1.253,1.253,0,0,0,0,1.772l1.079-1.079A1.253,1.253,0,0,0,123.34,212.769Z" transform="translate(-121.917 -212.472)" fill="#707070"/>
      </g>
    </g>
    <path id="Path_167" data-name="Path 167" d="M4.345,342.8a.784.784,0,0,0,1.108,0l1.135-1.135L1.919,337A.784.784,0,0,0,.81,337l-.581.581a.784.784,0,0,0,0,1.108Z" transform="translate(0 -316.367)" fill="#707070"/>
    <g id="Group_279" data-name="Group 279" transform="translate(0)">
      <path id="Path_168" data-name="Path 168" d="M73.508,417.181l-1.217-1.217L71.156,417.1a.784.784,0,0,1-1.108,0l1.771,1.771a.784.784,0,0,0,1.108,0l.581-.581A.784.784,0,0,0,73.508,417.181Z" transform="translate(-65.805 -390.765)" fill="#707070"/>
      <path id="Path_169" data-name="Path 169" fill="#707070"/>
    </g>
  </g>
</svg>
