<svg id="target" xmlns="http://www.w3.org/2000/svg" width="24" height="24" viewBox="0 0 24 24">
  <path id="Path_1" data-name="Path 1" d="M12.4,22.8A10.4,10.4,0,1,1,22.8,12.4,10.412,10.412,0,0,1,12.4,22.8Zm0-19.24a8.84,8.84,0,1,0,8.84,8.84A8.85,8.85,0,0,0,12.4,3.56Z" transform="translate(-0.4 -0.4)" fill="#707070"/>
  <path id="Path_2" data-name="Path 2" d="M11.85,4a.6.6,0,0,1-.6-.6V.6a.6.6,0,1,1,1.2,0V3.4A.6.6,0,0,1,11.85,4Z" transform="translate(0.15)" fill="#707070"/>
  <path id="Path_3" data-name="Path 3" d="M22.4,12.45H19.6a.6.6,0,1,1,0-1.2h2.8a.6.6,0,1,1,0,1.2Z" transform="translate(1 0.15)" fill="#707070"/>
  <path id="Path_4" data-name="Path 4" d="M11.85,23a.6.6,0,0,1-.6-.6V19.6a.6.6,0,1,1,1.2,0v2.8A.6.6,0,0,1,11.85,23Z" transform="translate(0.15 1)" fill="#707070"/>
  <path id="Path_5" data-name="Path 5" d="M3.4,12.45H.6a.6.6,0,1,1,0-1.2H3.4a.6.6,0,1,1,0,1.2Z" transform="translate(0 0.15)" fill="#707070"/>
  <path id="Path_6" data-name="Path 6" d="M11.4,13.8a2.4,2.4,0,1,1,2.4-2.4A2.4,2.4,0,0,1,11.4,13.8Zm0-3.6a1.2,1.2,0,1,0,1.2,1.2A1.2,1.2,0,0,0,11.4,10.2Z" transform="translate(0.6 0.6)" fill="#707070"/>
</svg>
