<svg id="target_1_" data-name="target (1)" xmlns="http://www.w3.org/2000/svg" width="36" height="36" viewBox="0 0 36 36">
  <path id="Path_1575" data-name="Path 1575" d="M137.786,131.39V129.28h2.053a9.58,9.58,0,0,0-8.449-8.449v2.053H129.28v-2.053a9.58,9.58,0,0,0-8.449,8.449h2.053v2.109h-2.053a9.58,9.58,0,0,0,8.449,8.449v-2.053h2.109v2.053a9.58,9.58,0,0,0,8.449-8.449Zm-7.451,4.289a5.344,5.344,0,1,1,5.344-5.344A5.35,5.35,0,0,1,130.335,135.679Z" transform="translate(-112.335 -112.335)" fill="#4aa9c5"/>
  <circle id="Ellipse_58" data-name="Ellipse 58" cx="3.5" cy="3.5" r="3.5" transform="translate(14.333 14.333)" fill="#4aa9c5"/>
  <path id="Path_1576" data-name="Path 1576" d="M30.728,5.272A18,18,0,0,0,5.272,30.728,18,18,0,0,0,30.728,5.272ZM19.055,31.784H16.945v-2.16A11.691,11.691,0,0,1,6.376,19.055H4.216V16.945h2.16A11.691,11.691,0,0,1,16.945,6.376V4.216h2.109v2.16A11.691,11.691,0,0,1,29.624,16.945h2.16v2.109h-2.16A11.691,11.691,0,0,1,19.055,29.624Z" transform="translate(0 0)" fill="#4aa9c5"/>
</svg>
