<svg xmlns="http://www.w3.org/2000/svg" width="40" height="40" viewBox="0 0 40 40">
  <g id="Group_1011" data-name="Group 1011" transform="translate(-30 -225)">
    <circle id="Ellipse_8" data-name="Ellipse 8" cx="20" cy="20" r="20" transform="translate(30 225)" fill="#eff3f6"/>
    <path id="traffic" d="M29.865,73.246a.611.611,0,0,0-.536-.37H26.581a.612.612,0,0,0-.536.37,4.451,4.451,0,0,0-.157.556l-1.836-5.078a2.127,2.127,0,0,0-1.995-1.4H8.018a2.127,2.127,0,0,0-1.995,1.4L4.187,73.8a4.463,4.463,0,0,0-.157-.557.611.611,0,0,0-.536-.37H.746a.611.611,0,0,0-.536.37,2.707,2.707,0,0,0,0,2.084.611.611,0,0,0,.536.37H3.5l-.041.115A1.409,1.409,0,0,0,2.5,77.151v9.309a.677.677,0,0,0,.677.677H6.581a.677.677,0,0,0,.677-.677v-3.3H22.816v3.3a.677.677,0,0,0,.677.677H26.9a.677.677,0,0,0,.677-.677V77.151a1.409,1.409,0,0,0-.964-1.336l-.042-.115h2.756a.611.611,0,0,0,.536-.37A2.707,2.707,0,0,0,29.865,73.246ZM8.277,69.816H21.8l2.142,5.926H6.135Zm.377,10.1H5.8a1.108,1.108,0,0,1,0-2.215H8.654a1.108,1.108,0,0,1,0,2.215Zm15.617,0H21.42a1.108,1.108,0,0,1,0-2.215h2.851a1.108,1.108,0,0,1,0,2.215Z" transform="translate(34.499 168.176)" fill="#707070" stroke="#707070" stroke-linecap="round" stroke-linejoin="round" stroke-width="0"/>
  </g>
</svg>
