<svg xmlns="http://www.w3.org/2000/svg" width="40" height="40" viewBox="0 0 40 40">
  <g id="Group_1013" data-name="Group 1013" transform="translate(-150 -225)">
    <circle id="Ellipse_54" data-name="Ellipse 54" cx="20" cy="20" r="20" transform="translate(150 225)" fill="#eff3f6"/>
    <g id="motorcycle" transform="translate(156 155.057)">
      <path id="Path_1546" data-name="Path 1546" d="M6.579,195.313h5.8a3.438,3.438,0,0,1-.563-1.856,3.506,3.506,0,0,1,.359-1.521H4.89A1.689,1.689,0,0,0,3.2,193.625v.815A7.62,7.62,0,0,0,0,197.422l1.461.848a5.937,5.937,0,0,1,5.118-2.957Z" transform="translate(0 -105.689)" fill="#707070"/>
      <path id="Path_1547" data-name="Path 1547" d="M67.668,281.936l-.371,1.481a4.21,4.21,0,1,0,.94,3.585h3.789a4.267,4.267,0,0,0,3.957-2.617l1-2.448ZM64.1,288.69a2.533,2.533,0,1,1,2.362-3.377H63.257V287h3.222A2.529,2.529,0,0,1,64.1,288.69Z" transform="translate(-56.51 -190.624)" fill="#707070"/>
      <path id="Path_1548" data-name="Path 1548" d="M250.968,91.312c-.169,0-.338.034-.507.051l-1.131-3.428h2.482V82.869H249.28a2.527,2.527,0,0,0-1.486.49l-.54-1.677a2.519,2.519,0,0,0-2.887-1.689l-2.009.405.338,1.655,1.993-.405a.85.85,0,0,1,.962.574l.912,2.741a4.009,4.009,0,0,0-.557.068c-.169.034-4.935.972-4.638.912a1.877,1.877,0,0,0-1.486,1.824,1.852,1.852,0,0,0,1.857,1.857h4.841a1.879,1.879,0,0,0,1.334-.557l.946,2.837a4.187,4.187,0,1,0,2.111-.591Zm0,6.754a2.527,2.527,0,0,1-1.553-4.525l.76,2.263,1.587-.54L251.019,93a2.533,2.533,0,0,1-.051,5.066Z" transform="translate(-226.378)" fill="#707070"/>
    </g>
  </g>
</svg>
