<svg xmlns="http://www.w3.org/2000/svg" width="40" height="40" viewBox="0 0 40 40">
  <g id="Group_1012" data-name="Group 1012" transform="translate(-90 -225)">
    <circle id="Ellipse_53" data-name="Ellipse 53" cx="20" cy="20" r="20" transform="translate(90 225)" fill="#eff3f6"/>
    <g id="walk" transform="translate(87.967 231)">
      <g id="Group_973" data-name="Group 973" transform="translate(15.032 0)">
        <path id="Path_1544" data-name="Path 1544" d="M15.787,46.242a1.568,1.568,0,0,0,.324,2.144,1.538,1.538,0,0,0,2.145-.324,9.873,9.873,0,0,1,2.462-2.617,13.491,13.491,0,0,1-.861-3.7A28.835,28.835,0,0,0,15.787,46.242Z" transform="translate(-15.29 -22.535)" fill="#707070"/>
        <path id="Path_1545" data-name="Path 1545" d="M28.015,17.769a31.7,31.7,0,0,0-5.831-4.187,2.613,2.613,0,0,0-.76-.4,1.544,1.544,0,0,0-.536-.115,2.278,2.278,0,0,0-.845.053A2.182,2.182,0,0,0,18.6,14.287a29.875,29.875,0,0,0-3.358,4.908c-.967,1.728,1.683,3.275,2.649,1.548.3-.541.613-1.074.938-1.6q.42,2.833.839,5.665a1.8,1.8,0,0,0,.493.98,27.309,27.309,0,0,0,2.331,7.78c.859,1.781,3.5.224,2.649-1.548a22.75,22.75,0,0,1-1.83-5.876,2.571,2.571,0,0,0,.936-2.563q-.416-2.8-.83-5.6a30.429,30.429,0,0,1,2.427,1.948C27.319,21.247,29.5,19.086,28.015,17.769Z" transform="translate(-15.032 -7.047)" fill="#707070"/>
        <circle id="Ellipse_52" data-name="Ellipse 52" cx="2.673" cy="2.673" r="2.673" transform="translate(2.951)" fill="#707070"/>
      </g>
    </g>
  </g>
</svg>
